<svg xmlns="http://www.w3.org/2000/svg" xmlns:xlink="http://www.w3.org/1999/xlink" width="108.777" height="84.388" viewBox="0 0 81.583 63.291"><symbol id="a"><path d="M.205.64c0 .024 0 .026-.023.026C.12.602.032.602 0 .602V.571a.3.3 0 0 1 .131.026V.079C.131.043.128.031.038.031H.006V0c.035.003.122.003.162.003.04 0 .127 0 .162-.003v.031H.298c-.09 0-.093.011-.093.048V.64z"/></symbol><use xlink:href="#a" transform="matrix(9.9626 0 0 -9.9626 8.497 10.067)"/><symbol id="b"><path d="M.077.077.183.18c.156.138.216.192.216.292 0 .114-.09.194-.212.194A.185.185 0 0 1 0 .485C0 .429.05.429.053.429c.017 0 .052.012.052.053a.05.05 0 0 1-.053.052L.039.533a.144.144 0 0 0 .135.102C.265.635.308.554.308.472c0-.08-.05-.159-.105-.221L.011.037C0 .026 0 .024 0 0h.371l.028.174H.374C.369.144.362.1.352.085.345.077.279.077.257.077h-.18z"/></symbol><use xlink:href="#b" transform="matrix(9.9626 0 0 -9.9626 69.49 10.067)"/><symbol id="c"><path d="M.266.165V.078C.266.042.264.031.19.031H.169V0C.21.003.262.003.304.003.346.003.399.003.44 0v.031H.419C.345.031.343.042.343.078v.087h.1v.031h-.1v.455c0 .02 0 .026-.016.026-.009 0-.012 0-.02-.012L0 .196V.165h.266m.006.031H.028l.244.373V.196z"/></symbol><use xlink:href="#c" transform="matrix(9.9626 0 0 -9.9626 7.889 59.645)"/><symbol id="d"><path d="M.248.374c.082.027.14.097.14.176C.388.632.3.688.204.688.103.688.027.628.027.552.027.519.049.5.078.5.109.5.129.522.129.551c0 .05-.047.05-.062.05C.098.65.164.663.2.663.241.663.296.641.296.551A.25.25 0 0 0 .268.437C.238.389.204.386.179.385A.554.554 0 0 0 .14.382C.132.381.125.38.125.37c0-.011.007-.011.024-.011h.044C.275.359.312.291.312.193.312.057.243.028.199.028.156.028.081.045.046.104.081.099.112.121.112.159a.054.054 0 0 1-.056.056C.032.215 0 .201 0 .157 0 .066.093 0 .202 0c.122 0 .213.091.213.193 0 .082-.063.16-.167.181z"/></symbol><use xlink:href="#d" transform="matrix(9.9626 0 0 -9.9626 69.41 59.864)"/><path stroke-width=".398" stroke-miterlimit="10" fill="none" stroke="#000" d="M17.08 7.576h47.024"/><path stroke-width=".398" stroke-linecap="round" stroke-linejoin="round" fill="none" stroke="#000" d="M62.231 5.185c.379 1.435 1.222 2.112 2.072 2.391-.85.28-1.693.957-2.072 2.391"/><path stroke-width=".398" stroke-miterlimit="10" fill="none" stroke="#000" d="M71.482 13.912v35.07"/><path stroke-width=".398" stroke-linecap="round" stroke-linejoin="round" fill="none" stroke="#000" d="M73.873 47.108c-1.435.379-2.112 1.223-2.391 2.073-.28-.85-.957-1.694-2.391-2.073"/><path stroke-width=".398" stroke-miterlimit="10" fill="none" stroke="#000" d="M10.1 49.38V14.31"/><path stroke-width=".398" stroke-linecap="round" stroke-linejoin="round" fill="none" stroke="#000" d="M7.71 16.184c1.434-.379 2.111-1.223 2.39-2.073.28.85.957 1.694 2.391 2.073"/><path stroke-width=".398" stroke-miterlimit="10" fill="none" stroke="#000" d="M64.502 57.155H17.478"/><path stroke-width=".398" stroke-linecap="round" stroke-linejoin="round" fill="none" stroke="#000" d="M19.351 59.546c-.379-1.435-1.222-2.112-2.072-2.391.85-.28 1.693-.956 2.072-2.391"/></svg>