<?xml version="1.0" encoding="UTF-8"?>
<!DOCTYPE svg PUBLIC "-//W3C//DTD SVG 1.1//EN" "http://www.w3.org/Graphics/SVG/1.1/DTD/svg11.dtd">
<svg xmlns="http://www.w3.org/2000/svg" version="1.1" width="1140px" height="315px" style="shape-rendering:geometricPrecision; text-rendering:geometricPrecision; image-rendering:optimizeQuality; fill-rule:evenodd; clip-rule:evenodd" xmlns:xlink="http://www.w3.org/1999/xlink">
<g><path style="opacity:1" fill="#fefefe" d="M -0.5,-0.5 C 379.5,-0.5 759.5,-0.5 1139.5,-0.5C 1139.5,104.5 1139.5,209.5 1139.5,314.5C 759.5,314.5 379.5,314.5 -0.5,314.5C -0.5,209.5 -0.5,104.5 -0.5,-0.5 Z"/></g>
<g><path style="opacity:1" fill="#101010" d="M 333.5,21.5 C 336.912,23.8521 338.746,27.1855 339,31.5C 343.205,35.6823 345.539,40.6823 346,46.5C 349.109,51.2954 351.775,56.2954 354,61.5C 357.268,73.9456 360.268,86.6123 363,99.5C 363.667,126.5 363.667,153.5 363,180.5C 360.712,186.317 359.046,192.317 358,198.5C 352.373,205.095 349.54,212.762 349.5,221.5C 348.5,221.5 347.5,221.5 346.5,221.5C 346.067,224.166 345.567,226.832 345,229.5C 342.248,238.168 339.081,246.668 335.5,255C 333.511,257.964 331.344,260.798 329,263.5C 328.457,265.631 327.624,267.631 326.5,269.5C 325.28,269.113 324.613,268.28 324.5,267C 326.362,263.15 328.196,259.317 330,255.5C 331.333,254.833 332.333,253.833 333,252.5C 336.942,242.743 340.276,232.743 343,222.5C 343.667,220.5 345,219.167 347,218.5C 347.271,210.571 349.938,203.571 355,197.5C 355.438,191.736 357.105,186.403 360,181.5C 360.667,154.167 360.667,126.833 360,99.5C 357.361,86.9246 354.361,74.5913 351,62.5C 349.153,57.1443 346.487,52.1443 343,47.5C 342.539,41.6823 340.205,36.6823 336,32.5C 335.513,29.2016 334.347,26.2016 332.5,23.5C 332.863,22.8165 333.196,22.1499 333.5,21.5 Z"/></g>
<g><path style="opacity:1" fill="#0f0f0f" d="M 409.5,34.5 C 410.478,34.811 411.145,35.4777 411.5,36.5C 408.17,40.9014 406.67,45.9014 407,51.5C 404.152,58.5719 402.152,65.9052 401,73.5C 399.414,78.3221 397.414,82.9888 395,87.5C 394.143,101.618 391.476,115.284 387,128.5C 386.06,137.84 385.06,147.174 384,156.5C 382.473,158.221 381.473,160.221 381,162.5C 380.333,174.833 380.333,187.167 381,199.5C 383.877,210.575 387.21,221.575 391,232.5C 393.333,235.833 395.667,239.167 398,242.5C 401.107,251.381 405.274,259.714 410.5,267.5C 409.833,267.833 409.167,268.167 408.5,268.5C 406.372,267.946 404.872,266.613 404,264.5C 400.989,257.455 397.989,250.455 395,243.5C 392.667,240.167 390.333,236.833 388,233.5C 385.122,224.085 382.122,214.752 379,205.5C 377.457,190.536 377.124,175.536 378,160.5C 378.748,158.668 379.748,157.001 381,155.5C 382.094,146.18 383.094,136.847 384,127.5C 385.94,123.057 386.94,118.39 387,113.5C 387.419,112.328 388.085,111.328 389,110.5C 389.489,96.674 392.822,83.674 399,71.5C 400.119,61.6149 402.119,51.9483 405,42.5C 405.738,39.3515 407.238,36.6848 409.5,34.5 Z"/></g>
<g><path style="opacity:1" fill="#0d0d0d" d="M 611.5,38.5 C 614.639,41.8484 616.806,45.8484 618,50.5C 624.026,55.237 628.026,61.237 630,68.5C 633.027,72.2439 634.693,76.5773 635,81.5C 635.667,82.1667 636.333,82.8333 637,83.5C 638.467,116.821 638.801,150.154 638,183.5C 634.769,190.088 632.936,197.088 632.5,204.5C 631.5,204.5 630.5,204.5 629.5,204.5C 627.377,212.672 625.71,221.005 624.5,229.5C 623.252,230.04 622.085,230.707 621,231.5C 621.412,238.94 619.078,245.274 614,250.5C 612.811,253.535 611.645,256.535 610.5,259.5C 608.571,259.769 606.905,259.269 605.5,258C 609.333,252.167 613.167,246.333 617,240.5C 617.143,236.381 617.81,232.381 619,228.5C 620.011,227.663 621.178,227.33 622.5,227.5C 622.335,224.15 622.502,220.817 623,217.5C 625.499,213.168 626.832,208.501 627,203.5C 628,202.833 629,202.167 630,201.5C 630.285,194.769 631.952,188.436 635,182.5C 635.829,149.82 635.496,117.153 634,84.5C 633.333,83.8333 632.667,83.1667 632,82.5C 629.936,70.2322 624.269,59.8989 615,51.5C 615.121,48.0787 613.788,45.4121 611,43.5C 610.36,41.735 610.527,40.0683 611.5,38.5 Z"/></g>
<g><path style="opacity:1" fill="#101010" d="M 124.5,49.5 C 127.317,49.8005 127.984,51.1339 126.5,53.5C 121.813,55.7145 118.979,59.3812 118,64.5C 116.333,66.1667 114.667,67.8333 113,69.5C 111.827,73.3372 109.827,76.6706 107,79.5C 102.593,89.9781 97.9265,100.311 93,110.5C 92.2975,119.603 90.9642,128.603 89,137.5C 88.3333,164.167 88.3333,190.833 89,217.5C 91.775,222.456 93.1084,227.79 93,233.5C 96.6667,237.167 100.333,240.833 104,244.5C 105.584,248.675 107.918,252.341 111,255.5C 121.764,264.774 132.931,273.44 144.5,281.5C 143.833,281.833 143.167,282.167 142.5,282.5C 137.045,279.874 131.711,277.04 126.5,274C 126.033,270.535 124.033,268.868 120.5,269C 117,264.167 112.833,260 108,256.5C 104.918,253.341 102.584,249.675 101,245.5C 97,242.167 93.3333,238.5 90,234.5C 90.2287,228.745 88.8954,223.412 86,218.5C 85.3333,191.5 85.3333,164.5 86,137.5C 88.4339,126.998 90.1006,116.332 91,105.5C 96.1098,96.8166 100.443,87.8166 104,78.5C 107.422,73.3224 111.089,68.3224 115,63.5C 116.941,57.9351 120.108,53.2684 124.5,49.5 Z"/></g>
<g><path style="opacity:1" fill="#0f0f0f" d="M 413.5,69.5 C 415.453,75.0738 416.12,81.0738 415.5,87.5C 414.833,88.8333 414.167,88.8333 413.5,87.5C 413.5,82.1667 413.5,76.8333 413.5,71.5C 412.127,71.6567 410.793,71.49 409.5,71C 411.058,70.79 412.391,70.29 413.5,69.5 Z"/></g>
<g><path style="opacity:1" fill="#0f0f0f" d="M 141.5,70.5 C 143.453,76.0738 144.12,82.0738 143.5,88.5C 142.833,89.8333 142.167,89.8333 141.5,88.5C 141.5,83.1667 141.5,77.8333 141.5,72.5C 140.127,72.6567 138.793,72.49 137.5,72C 139.058,71.79 140.391,71.29 141.5,70.5 Z"/></g>
<g><path style="opacity:1" fill="#141414" d="M 596.5,70.5 C 596.5,70.1667 596.5,69.8333 596.5,69.5C 599.286,69.9564 600.619,71.6231 600.5,74.5C 600.439,77.6276 599.106,79.9609 596.5,81.5C 596.167,81.5 595.833,81.5 595.5,81.5C 596.975,79.3624 597.975,77.0291 598.5,74.5C 598.66,72.6455 597.993,71.3121 596.5,70.5 Z"/></g>
<g><path style="opacity:1" fill="#141414" d="M 324.5,71.5 C 324.5,71.1667 324.5,70.8333 324.5,70.5C 327.286,70.9564 328.619,72.6231 328.5,75.5C 328.439,78.6276 327.106,80.9609 324.5,82.5C 324.167,82.5 323.833,82.5 323.5,82.5C 324.975,80.3624 325.975,78.0291 326.5,75.5C 326.66,73.6455 325.993,72.3121 324.5,71.5 Z"/></g>
<g><path style="opacity:1" fill="#595959" d="M 596.5,69.5 C 596.5,69.8333 596.5,70.1667 596.5,70.5C 592.591,69.7366 591.258,71.0699 592.5,74.5C 591.675,75.3857 590.675,75.719 589.5,75.5C 589.571,70.4069 591.904,68.4069 596.5,69.5 Z"/></g>
<g><path style="opacity:1" fill="#595959" d="M 324.5,70.5 C 324.5,70.8333 324.5,71.1667 324.5,71.5C 320.591,70.7366 319.258,72.0699 320.5,75.5C 319.675,76.3857 318.675,76.719 317.5,76.5C 317.571,71.4069 319.904,69.4069 324.5,70.5 Z"/></g>
<g><path style="opacity:1" fill="#6f6f6f" d="M 746.5,75.5 C 748.337,75.6395 748.67,76.3061 747.5,77.5C 746.702,77.0431 746.369,76.3764 746.5,75.5 Z"/></g>
<g><path style="opacity:1" fill="#2b2b2b" d="M 571.5,79.5 C 569.048,78.2641 567.881,76.2641 568,73.5C 569.431,75.3635 570.597,77.3635 571.5,79.5 Z"/></g>
<g><path style="opacity:1" fill="#0f0f0f" d="M 843.5,76.5 C 845.453,82.0738 846.12,88.0738 845.5,94.5C 844.833,95.8333 844.167,95.8333 843.5,94.5C 843.5,89.1667 843.5,83.8333 843.5,78.5C 842.127,78.6567 840.793,78.49 839.5,78C 841.058,77.79 842.391,77.29 843.5,76.5 Z"/></g>
<g><path style="opacity:1" fill="#2b2b2b" d="M 299.5,80.5 C 297.048,79.2641 295.881,77.2641 296,74.5C 297.431,76.3635 298.597,78.3635 299.5,80.5 Z"/></g>
<g><path style="opacity:1" fill="#141414" d="M 1026.5,77.5 C 1026.5,77.1667 1026.5,76.8333 1026.5,76.5C 1029.29,76.9564 1030.62,78.6231 1030.5,81.5C 1030.44,84.6276 1029.11,86.9609 1026.5,88.5C 1026.17,88.5 1025.83,88.5 1025.5,88.5C 1026.97,86.3624 1027.97,84.0291 1028.5,81.5C 1028.66,79.6455 1027.99,78.3121 1026.5,77.5 Z"/></g>
<g><path style="opacity:1" fill="#595959" d="M 1026.5,76.5 C 1026.5,76.8333 1026.5,77.1667 1026.5,77.5C 1022.59,76.7366 1021.26,78.0699 1022.5,81.5C 1021.68,82.3857 1020.68,82.719 1019.5,82.5C 1019.57,77.4069 1021.9,75.4069 1026.5,76.5 Z"/></g>
<g><path style="opacity:1" fill="#000000" d="M 571.5,79.5 C 574.682,80.1403 575.015,81.1403 572.5,82.5C 527.002,81.6673 481.335,81.1673 435.5,81C 481.002,80.8327 526.335,80.3327 571.5,79.5 Z"/></g>
<g><path style="opacity:1" fill="#000000" d="M 299.5,80.5 C 302.682,81.1403 303.015,82.1403 300.5,83.5C 255.002,82.6673 209.335,82.1673 163.5,82C 209.002,81.8327 254.335,81.3327 299.5,80.5 Z"/></g>
<g><path style="opacity:1" fill="#212121" d="M 572.5,82.5 C 570.913,84.7668 569.247,86.6002 567.5,88C 567.981,85.022 569.647,83.1886 572.5,82.5 Z"/></g>
<g><path style="opacity:1" fill="#686868" d="M 595.5,81.5 C 595.833,81.5 596.167,81.5 596.5,81.5C 595.167,83.1667 593.833,84.8333 592.5,86.5C 591.833,86.5 591.167,86.5 590.5,86.5C 591.833,84.5 593.5,82.8333 595.5,81.5 Z"/></g>
<g><path style="opacity:1" fill="#212121" d="M 300.5,83.5 C 298.913,85.7668 297.247,87.6002 295.5,89C 295.981,86.022 297.647,84.1886 300.5,83.5 Z"/></g>
<g><path style="opacity:1" fill="#686868" d="M 323.5,82.5 C 323.833,82.5 324.167,82.5 324.5,82.5C 323.167,84.1667 321.833,85.8333 320.5,87.5C 319.833,87.5 319.167,87.5 318.5,87.5C 319.833,85.5 321.5,83.8333 323.5,82.5 Z"/></g>
<g><path style="opacity:1" fill="#040404" d="M 590.5,86.5 C 591.167,86.5 591.833,86.5 592.5,86.5C 595.119,86.7683 597.619,86.435 600,85.5C 600.483,86.448 600.649,87.448 600.5,88.5C 596.818,88.6653 593.152,88.4986 589.5,88C 590.056,87.6174 590.389,87.1174 590.5,86.5 Z"/></g>
<g><path style="opacity:1" fill="#050505" d="M 867.5,89.5 C 866.624,89.6309 865.957,89.2975 865.5,88.5C 868.363,86.4631 870.53,83.7964 872,80.5C 871.921,82.8463 871.088,85.013 869.5,87C 914.5,87.3333 959.5,87.6667 1004.5,88C 958.665,88.1673 912.998,88.6673 867.5,89.5 Z"/></g>
<g><path style="opacity:1" fill="#040404" d="M 318.5,87.5 C 319.167,87.5 319.833,87.5 320.5,87.5C 323.119,87.7683 325.619,87.435 328,86.5C 328.483,87.448 328.649,88.448 328.5,89.5C 324.818,89.6653 321.152,89.4986 317.5,89C 318.056,88.6174 318.389,88.1174 318.5,87.5 Z"/></g>
<g><path style="opacity:1" fill="#252525" d="M 867.5,89.5 C 870.885,90.4744 872.219,92.4744 871.5,95.5C 870.542,93.216 869.208,91.216 867.5,89.5 Z"/></g>
<g><path style="opacity:1" fill="#686868" d="M 1025.5,88.5 C 1025.83,88.5 1026.17,88.5 1026.5,88.5C 1025.17,90.1667 1023.83,91.8333 1022.5,93.5C 1021.83,93.5 1021.17,93.5 1020.5,93.5C 1021.83,91.5 1023.5,89.8333 1025.5,88.5 Z"/></g>
<g><path style="opacity:1" fill="#040404" d="M 1020.5,93.5 C 1021.17,93.5 1021.83,93.5 1022.5,93.5C 1025.12,93.7683 1027.62,93.435 1030,92.5C 1030.48,93.448 1030.65,94.448 1030.5,95.5C 1026.82,95.6653 1023.15,95.4986 1019.5,95C 1020.06,94.6174 1020.39,94.1174 1020.5,93.5 Z"/></g>
<g><path style="opacity:1" fill="#2a2a2a" d="M 554.5,114.5 C 560.388,108.546 566.721,103.046 573.5,98C 574.167,97.3333 574.833,97.3333 575.5,98C 568.803,104 561.803,109.5 554.5,114.5 Z"/></g>
<g><path style="opacity:1" fill="#050505" d="M 322.5,100.5 C 324.328,133.818 325.161,167.485 325,201.5C 326.737,199.375 328.904,198.542 331.5,199C 328.084,200.25 325.417,202.417 323.5,205.5C 321.644,202.81 319.311,200.644 316.5,199C 318.678,198.835 320.511,199.668 322,201.5C 322.5,167.835 322.667,134.168 322.5,100.5 Z"/></g>
<g><path style="opacity:1" fill="#070707" d="M 141.5,101.5 C 143.799,103.773 146.465,105.773 149.5,107.5C 147.704,107.731 145.871,107.065 144,105.5C 143,238.833 142,238.833 141,105.5C 139.013,107.088 136.846,107.921 134.5,108C 137.753,106.726 140.086,104.56 141.5,101.5 Z"/></g>
<g><path style="opacity:1" fill="#868686" d="M 435.5,101.5 C 436.167,102.833 436.833,104.167 437.5,105.5C 437.631,106.376 437.298,107.043 436.5,107.5C 435.534,105.604 435.201,103.604 435.5,101.5 Z"/></g>
<g><path style="opacity:1" fill="#2c2c2c" d="M 528.5,135.5 C 521.94,141.791 514.94,147.625 507.5,153C 506.316,154.145 506.316,155.312 507.5,156.5C 505.833,155.167 504.167,155.167 502.5,156.5C 503.684,155.312 503.684,154.145 502.5,153C 480.909,135.954 459.409,118.787 438,101.5C 437.51,102.793 437.343,104.127 437.5,105.5C 436.833,104.167 436.167,102.833 435.5,101.5C 435.5,100.167 435.5,98.8333 435.5,97.5C 438.889,97.3679 442.223,97.2012 445.5,97C 443.51,98.7506 441.177,99.7506 438.5,100C 460.758,117.713 482.925,135.547 505,153.5C 512.444,146.877 520.277,140.877 528.5,135.5 Z"/></g>
<g><path style="opacity:1" fill="#060606" d="M 1024.5,107.5 C 1026.67,109.802 1029.34,111.635 1032.5,113C 1030.43,113.536 1028.6,113.036 1027,111.5C 1026,244.833 1025,244.833 1024,111.5C 1022.13,113.065 1020.3,113.731 1018.5,113.5C 1021.44,112.378 1023.44,110.378 1024.5,107.5 Z"/></g>
<g><path style="opacity:1" fill="#272727" d="M 554.5,114.5 C 546.418,122.252 537.751,129.252 528.5,135.5C 536.582,127.748 545.249,120.748 554.5,114.5 Z"/></g>
<g><path style="opacity:1" fill="#292929" d="M 1004.5,216.5 C 1002.74,217.461 1000.74,217.795 998.5,217.5C 999.263,216.732 1000.26,216.232 1001.5,216C 955.833,179 910.167,142 864.5,105C 864.833,104.833 865.167,104.667 865.5,104.5C 915.292,144.631 961.625,181.964 1004.5,216.5 Z"/></g>
<g><path style="opacity:1" fill="#010101" d="M 704.5,137.5 C 730.169,137.333 755.835,137.5 781.5,138C 781.957,138.414 782.291,138.914 782.5,139.5C 756.506,140.667 730.506,140.833 704.5,140C 703.402,139.23 703.402,138.397 704.5,137.5 Z"/></g>
<g><path style="opacity:1" fill="#2a2a2a" d="M 507.5,156.5 C 530.228,173.716 552.561,191.549 574.5,210C 572.369,209.602 570.369,208.602 568.5,207C 548.096,190.148 527.763,173.315 507.5,156.5 Z"/></g>
<g><path style="opacity:1" fill="#030303" d="M 771.5,169.5 C 773.466,170.255 773.8,171.421 772.5,173C 752.5,173.333 732.5,173.667 712.5,174C 710.517,176.862 708.183,177.195 705.5,175C 707.734,174.031 709.734,172.698 711.5,171C 731.671,170.832 751.671,170.332 771.5,169.5 Z"/></g>
<g><path style="opacity:1" fill="#292929" d="M 502.5,156.5 C 494.418,164.252 485.751,171.252 476.5,177.5C 484.582,169.748 493.249,162.748 502.5,156.5 Z"/></g>
<g><path style="opacity:1" fill="#292929" d="M 476.5,177.5 C 468.418,185.252 459.751,192.252 450.5,198.5C 458.582,190.748 467.249,183.748 476.5,177.5 Z"/></g>
<g><path style="opacity:1" fill="#1f1f1f" d="M 450.5,198.5 C 446.759,202.218 442.759,205.718 438.5,209C 439.737,209.232 440.737,209.732 441.5,210.5C 439.265,210.795 437.265,210.461 435.5,209.5C 436.496,206.518 436.663,203.518 436,200.5C 437.044,202.715 437.71,205.048 438,207.5C 441.961,204.113 446.127,201.113 450.5,198.5 Z"/></g>
<g><path style="opacity:1" fill="#828282" d="M 435.5,209.5 C 437.265,210.461 439.265,210.795 441.5,210.5C 442.239,210.369 442.906,210.536 443.5,211C 440.446,211.821 437.446,211.655 434.5,210.5C 434.624,209.893 434.957,209.56 435.5,209.5 Z"/></g>
<g><path style="opacity:1" fill="#262626" d="M 416.5,215.5 C 417.167,219.833 417.833,224.167 418.5,228.5C 420.85,229.11 420.517,229.444 417.5,229.5C 417.5,230.833 417.5,232.167 417.5,233.5C 416.833,234.833 416.167,234.833 415.5,233.5C 415.5,232.167 415.5,230.833 415.5,229.5C 412.813,229.664 410.146,229.497 407.5,229C 408.211,227.745 409.044,226.579 410,225.5C 410.617,226.449 410.451,227.282 409.5,228C 411.473,228.495 413.473,228.662 415.5,228.5C 415.665,225.482 415.498,222.482 415,219.5C 414.346,220.696 413.846,220.696 413.5,219.5C 414.524,218.148 415.524,216.815 416.5,215.5 Z"/></g>
<g><path style="opacity:1" fill="#979797" d="M 416.5,215.5 C 416.56,214.957 416.893,214.624 417.5,214.5C 418.493,219.12 418.827,223.786 418.5,228.5C 417.833,224.167 417.167,219.833 416.5,215.5 Z"/></g>
<g><path style="opacity:1" fill="#959595" d="M 597.5,215.5 C 596.833,215.5 596.5,215.833 596.5,216.5C 594.833,216.5 593.167,216.5 591.5,216.5C 593.32,214.539 595.32,214.206 597.5,215.5 Z"/></g>
<g><path style="opacity:1" fill="#262626" d="M 144.5,216.5 C 145.167,220.833 145.833,225.167 146.5,229.5C 148.85,230.11 148.517,230.444 145.5,230.5C 145.5,231.833 145.5,233.167 145.5,234.5C 144.833,235.833 144.167,235.833 143.5,234.5C 143.5,233.167 143.5,231.833 143.5,230.5C 140.813,230.664 138.146,230.497 135.5,230C 136.211,228.745 137.044,227.579 138,226.5C 138.617,227.449 138.451,228.282 137.5,229C 139.473,229.495 141.473,229.662 143.5,229.5C 143.665,226.482 143.498,223.482 143,220.5C 142.346,221.696 141.846,221.696 141.5,220.5C 142.524,219.148 143.524,217.815 144.5,216.5 Z"/></g>
<g><path style="opacity:1" fill="#979797" d="M 144.5,216.5 C 144.56,215.957 144.893,215.624 145.5,215.5C 146.493,220.12 146.827,224.786 146.5,229.5C 145.833,225.167 145.167,220.833 144.5,216.5 Z"/></g>
<g><path style="opacity:1" fill="#959595" d="M 325.5,216.5 C 324.833,216.5 324.5,216.833 324.5,217.5C 322.833,217.5 321.167,217.5 319.5,217.5C 321.32,215.539 323.32,215.206 325.5,216.5 Z"/></g>
<g><path style="opacity:1" fill="#1f1f1f" d="M 591.5,216.5 C 592.626,217.858 592.626,219.192 591.5,220.5C 590.218,219.042 590.218,217.708 591.5,216.5 Z"/></g>
<g><path style="opacity:1" fill="#858585" d="M 1004.5,216.5 C 1005.04,216.56 1005.38,216.893 1005.5,217.5C 1002.55,218.655 999.554,218.821 996.5,218C 997.094,217.536 997.761,217.369 998.5,217.5C 1000.74,217.795 1002.74,217.461 1004.5,216.5 Z"/></g>
<g><path style="opacity:1" fill="#1f1f1f" d="M 319.5,217.5 C 320.626,218.858 320.626,220.192 319.5,221.5C 318.218,220.042 318.218,218.708 319.5,217.5 Z"/></g>
<g><path style="opacity:1" fill="#1c1c1c" d="M 569.5,223.5 C 568.733,222.828 568.066,221.995 567.5,221C 569.061,220.812 569.728,221.645 569.5,223.5 Z"/></g>
<g><path style="opacity:1" fill="#181818" d="M 168.5,224.5 C 168.272,222.645 168.939,221.812 170.5,222C 169.934,222.995 169.267,223.828 168.5,224.5 Z"/></g>
<g><path style="opacity:1" fill="#262626" d="M 846.5,222.5 C 847.167,226.833 847.833,231.167 848.5,235.5C 850.85,236.11 850.517,236.444 847.5,236.5C 847.5,237.833 847.5,239.167 847.5,240.5C 846.833,241.833 846.167,241.833 845.5,240.5C 845.5,239.167 845.5,237.833 845.5,236.5C 842.813,236.664 840.146,236.497 837.5,236C 838.211,234.745 839.044,233.579 840,232.5C 840.617,233.449 840.451,234.282 839.5,235C 841.473,235.495 843.473,235.662 845.5,235.5C 845.665,232.482 845.498,229.482 845,226.5C 844.346,227.696 843.846,227.696 843.5,226.5C 844.524,225.148 845.524,223.815 846.5,222.5 Z"/></g>
<g><path style="opacity:1" fill="#979797" d="M 846.5,222.5 C 846.56,221.957 846.893,221.624 847.5,221.5C 848.493,226.12 848.827,230.786 848.5,235.5C 847.833,231.167 847.167,226.833 846.5,222.5 Z"/></g>
<g><path style="opacity:1" fill="#959595" d="M 1027.5,222.5 C 1026.83,222.5 1026.5,222.833 1026.5,223.5C 1024.83,223.5 1023.17,223.5 1021.5,223.5C 1023.32,221.539 1025.32,221.206 1027.5,222.5 Z"/></g>
<g><path style="opacity:1" fill="#1f1f1f" d="M 1021.5,223.5 C 1022.63,224.858 1022.63,226.192 1021.5,227.5C 1020.22,226.042 1020.22,224.708 1021.5,223.5 Z"/></g>
<g><path style="opacity:1" fill="#040404" d="M 569.5,223.5 C 571.358,224.595 573.025,225.929 574.5,227.5C 571.637,229.537 569.47,232.204 568,235.5C 568.079,233.154 568.912,230.987 570.5,229C 390.5,228 390.5,227 570.5,226C 569.748,225.329 569.414,224.496 569.5,223.5 Z"/></g>
<g><path style="opacity:1" fill="#181818" d="M 596.5,216.5 C 596.5,215.833 596.833,215.5 597.5,215.5C 601.467,218.201 601.467,221.034 597.5,224C 602.8,227.636 602.8,231.136 597.5,234.5C 596.833,234.5 596.5,234.167 596.5,233.5C 597.117,233.389 597.617,233.056 598,232.5C 599.615,227.91 598.115,225.077 593.5,224C 594.766,223.691 595.933,223.191 597,222.5C 597.789,220.288 597.622,218.288 596.5,216.5 Z"/></g>
<g><path style="opacity:1" fill="#040404" d="M 168.5,224.5 C 168.586,225.496 168.252,226.329 167.5,227C 347.5,228 347.5,229 167.5,230C 169.088,231.987 169.921,234.154 170,236.5C 168.53,233.204 166.363,230.537 163.5,228.5C 164.975,226.929 166.642,225.595 168.5,224.5 Z"/></g>
<g><path style="opacity:1" fill="#181818" d="M 324.5,217.5 C 324.5,216.833 324.833,216.5 325.5,216.5C 329.467,219.201 329.467,222.034 325.5,225C 330.8,228.636 330.8,232.136 325.5,235.5C 324.833,235.5 324.5,235.167 324.5,234.5C 325.117,234.389 325.617,234.056 326,233.5C 327.615,228.91 326.115,226.077 321.5,225C 322.766,224.691 323.933,224.191 325,223.5C 325.789,221.288 325.622,219.288 324.5,217.5 Z"/></g>
<g><path style="opacity:1" fill="#161616" d="M 591.5,233.5 C 589.896,232.713 589.229,231.38 589.5,229.5C 590.675,229.281 591.675,229.614 592.5,230.5C 591.873,231.417 591.539,232.417 591.5,233.5 Z"/></g>
<g><path style="opacity:1" fill="#161616" d="M 319.5,234.5 C 317.896,233.713 317.229,232.38 317.5,230.5C 318.675,230.281 319.675,230.614 320.5,231.5C 319.873,232.417 319.539,233.417 319.5,234.5 Z"/></g>
<g><path style="opacity:1" fill="#181818" d="M 1026.5,223.5 C 1026.5,222.833 1026.83,222.5 1027.5,222.5C 1031.47,225.201 1031.47,228.034 1027.5,231C 1032.8,234.636 1032.8,238.136 1027.5,241.5C 1026.83,241.5 1026.5,241.167 1026.5,240.5C 1027.12,240.389 1027.62,240.056 1028,239.5C 1029.62,234.91 1028.12,232.077 1023.5,231C 1024.77,230.691 1025.93,230.191 1027,229.5C 1027.79,227.288 1027.62,225.288 1026.5,223.5 Z"/></g>
<g><path style="opacity:1" fill="#8e8e8e" d="M 591.5,233.5 C 593.167,233.5 594.833,233.5 596.5,233.5C 596.5,234.167 596.833,234.5 597.5,234.5C 596.903,235.139 596.07,235.472 595,235.5C 593.301,235.613 592.134,234.947 591.5,233.5 Z"/></g>
<g><path style="opacity:1" fill="#8e8e8e" d="M 319.5,234.5 C 321.167,234.5 322.833,234.5 324.5,234.5C 324.5,235.167 324.833,235.5 325.5,235.5C 324.903,236.139 324.07,236.472 323,236.5C 321.301,236.613 320.134,235.947 319.5,234.5 Z"/></g>
<g><path style="opacity:1" fill="#161616" d="M 1021.5,240.5 C 1019.9,239.713 1019.23,238.38 1019.5,236.5C 1020.68,236.281 1021.68,236.614 1022.5,237.5C 1021.87,238.417 1021.54,239.417 1021.5,240.5 Z"/></g>
<g><path style="opacity:1" fill="#8e8e8e" d="M 1021.5,240.5 C 1023.17,240.5 1024.83,240.5 1026.5,240.5C 1026.5,241.167 1026.83,241.5 1027.5,241.5C 1026.9,242.139 1026.07,242.472 1025,242.5C 1023.3,242.613 1022.13,241.947 1021.5,240.5 Z"/></g>
</svg>
