<?xml version="1.0" encoding="UTF-8"?>
<!DOCTYPE svg PUBLIC "-//W3C//DTD SVG 1.1//EN" "http://www.w3.org/Graphics/SVG/1.1/DTD/svg11.dtd">
<svg xmlns="http://www.w3.org/2000/svg" version="1.1" width="1046px" height="337px" style="shape-rendering:geometricPrecision; text-rendering:geometricPrecision; image-rendering:optimizeQuality; fill-rule:evenodd; clip-rule:evenodd" xmlns:xlink="http://www.w3.org/1999/xlink">
<g><path style="opacity:1" fill="#fefefe" d="M -0.5,-0.5 C 348.167,-0.5 696.833,-0.5 1045.5,-0.5C 1045.5,111.833 1045.5,224.167 1045.5,336.5C 696.833,336.5 348.167,336.5 -0.5,336.5C -0.5,224.167 -0.5,111.833 -0.5,-0.5 Z"/></g>
<g><path style="opacity:1" fill="#0f0f0f" d="M 270.5,46.5 C 275.54,47.011 280.54,47.8443 285.5,49C 287.745,51.0875 290.412,52.4208 293.5,53C 297,57.8333 301.167,62 306,65.5C 313.573,79.6458 320.907,93.9791 328,108.5C 329.16,115.637 330.827,122.637 333,129.5C 333.667,153.5 333.667,177.5 333,201.5C 330.016,209.18 328.682,217.18 329,225.5C 326.298,229.372 324.965,233.705 325,238.5C 324,240.167 322.667,241.5 321,242.5C 320.667,244.167 320.333,245.833 320,247.5C 317.667,251.5 315.333,255.5 313,259.5C 311.03,263.899 310.197,268.565 310.5,273.5C 309.5,273.5 308.5,273.5 307.5,273.5C 307.5,274.833 307.5,276.167 307.5,277.5C 305.005,278.199 302.672,279.199 300.5,280.5C 300.351,279.448 300.517,278.448 301,277.5C 306.192,272.378 309.192,266.044 310,258.5C 313.405,252.745 316.405,246.745 319,240.5C 322.014,237.553 323.348,233.887 323,229.5C 323.748,227.668 324.748,226.001 326,224.5C 326.333,219.167 326.667,213.833 327,208.5C 328,206.5 329,204.5 330,202.5C 330.667,177.833 330.667,153.167 330,128.5C 327.599,122.773 326.266,116.773 326,110.5C 318.303,95.7705 310.637,81.1039 303,66.5C 301.587,64.5864 299.753,63.2531 297.5,62.5C 295.712,60.4235 294.046,58.2568 292.5,56C 285.705,52.2968 278.371,49.9634 270.5,49C 269.402,48.2303 269.402,47.397 270.5,46.5 Z"/></g>
<g><path style="opacity:1" fill="#101010" d="M 579.5,46.5 C 583.273,45.8224 586.106,47.1558 588,50.5C 589.944,54.1099 592.277,57.4432 595,60.5C 597.426,67.4525 600.426,74.1192 604,80.5C 605.759,89.3336 608.759,97.6669 613,105.5C 615.656,120.989 617.323,136.655 618,152.5C 618.225,175.169 617.892,197.836 617,220.5C 616.581,221.672 615.915,222.672 615,223.5C 613.912,230.684 612.745,237.851 611.5,245C 605.967,252.56 600.8,260.393 596,268.5C 595.709,274.998 594.209,280.998 591.5,286.5C 588.08,286.074 585.247,287.074 583,289.5C 582.167,289.333 581.333,289.167 580.5,289C 579.167,288.333 579.167,287.667 580.5,287C 583.09,285.555 585.757,284.388 588.5,283.5C 588.343,282.127 588.51,280.793 589,279.5C 590.585,278.624 591.585,277.291 592,275.5C 592.333,272.833 592.667,270.167 593,267.5C 597.825,259.189 603.159,251.189 609,243.5C 609.653,235.244 611.32,227.244 614,219.5C 616.22,188.135 615.886,156.801 613,125.5C 612.333,124.167 611.667,122.833 611,121.5C 610.667,116.5 610.333,111.5 610,106.5C 605.938,98.6096 602.938,90.2762 601,81.5C 597.468,75.1009 594.468,68.4342 592,61.5C 589.277,58.4432 586.944,55.1099 585,51.5C 582.955,50.1131 580.788,48.9464 578.5,48C 579.056,47.6174 579.389,47.1174 579.5,46.5 Z"/></g>
<g><path style="opacity:1" fill="#111111" d="M 98.5,55.5 C 100.665,55.1159 102.332,55.7826 103.5,57.5C 98.3064,58.6987 94.6397,61.6987 92.5,66.5C 90.4899,67.5019 88.4899,68.5019 86.5,69.5C 84.3113,74.8509 81.1446,79.5176 77,83.5C 74.4168,89.6805 72.0834,96.0139 70,102.5C 68.3333,104.833 66.6667,107.167 65,109.5C 61.956,126.247 58.6226,142.913 55,159.5C 53.0317,183.502 53.0317,207.502 55,231.5C 58.2223,237.054 59.889,243.054 60,249.5C 61.5843,253.675 63.9177,257.341 67,260.5C 67.3333,263.167 67.6667,265.833 68,268.5C 70.8894,272.056 72.8894,276.056 74,280.5C 75.708,282.543 77.708,284.21 80,285.5C 80.3333,286.833 80.6667,288.167 81,289.5C 87.3167,294.352 93.65,299.019 100,303.5C 106.275,304.743 111.442,307.743 115.5,312.5C 114.277,313.614 112.944,313.781 111.5,313C 107.372,309.006 102.372,306.84 96.5,306.5C 96.5,305.5 96.5,304.5 96.5,303.5C 95.1266,303.657 93.7932,303.49 92.5,303C 84.3755,296.575 77.2088,289.408 71,281.5C 69.8894,277.056 67.8894,273.056 65,269.5C 64.6667,266.833 64.3333,264.167 64,261.5C 58.6118,255.971 55.9452,249.304 56,241.5C 54.9413,238.382 53.6079,235.382 52,232.5C 49.8384,205.469 50.1717,178.469 53,151.5C 56.5136,143.593 58.1802,135.26 58,126.5C 60.1605,121.067 61.4938,115.4 62,109.5C 63.6078,106.228 65.6078,103.228 68,100.5C 69.9389,94.5305 71.9389,88.5305 74,82.5C 78.8476,78.1433 82.181,72.8099 84,66.5C 85.7337,65.7511 87.567,65.2511 89.5,65C 90.1905,63.9326 90.6905,62.7659 91,61.5C 93.6877,59.636 96.1877,57.636 98.5,55.5 Z"/></g>
<g><path style="opacity:1" fill="#0b0b0b" d="M 381.5,56.5 C 386.422,57.3344 386.589,58.6677 382,60.5C 382.028,64.685 380.695,68.3517 378,71.5C 377.667,74.1667 377.333,76.8333 377,79.5C 372.473,87.2212 368.473,95.2212 365,103.5C 362.915,111.675 360.249,119.675 357,127.5C 355.955,135.633 354.289,143.633 352,151.5C 351.333,192.5 351.333,233.5 352,274.5C 354.571,278.751 356.238,283.418 357,288.5C 360.331,291.192 361.498,294.525 360.5,298.5C 358.471,295.471 356.304,292.471 354,289.5C 353.085,284.138 351.418,279.138 349,274.5C 348.333,233.5 348.333,192.5 349,151.5C 351.478,143.696 353.144,135.696 354,127.5C 355.552,121.511 357.885,115.844 361,110.5C 363.568,99.1324 367.901,88.4657 374,78.5C 373.807,73.6481 375.14,69.3148 378,65.5C 377.913,61.9199 379.08,58.9199 381.5,56.5 Z"/></g>
<g><path style="opacity:1" fill="#020202" d="M 191.5,61.5 C 223.72,84.5392 255.553,108.206 287,132.5C 287.333,127.167 287.667,121.833 288,116.5C 289.586,115.624 291.086,114.624 292.5,113.5C 294.111,114.32 294.778,115.654 294.5,117.5C 293.167,117.5 291.833,117.5 290.5,117.5C 290.485,124.879 290.652,132.212 291,139.5C 278.492,178.349 266.825,217.349 256,256.5C 256.415,252.982 258.248,250.649 261.5,249.5C 263.581,245.75 266.581,243.084 270.5,241.5C 271.5,241.833 272.167,242.5 272.5,243.5C 270.464,245.356 268.131,246.856 265.5,248C 264.9,251.436 262.9,253.269 259.5,253.5C 259.5,255.833 259.5,258.167 259.5,260.5C 257.5,260.833 255.5,261.167 253.5,261.5C 253.5,260.5 253.5,259.5 253.5,258.5C 216.498,258.333 179.498,258.5 142.5,259C 145.291,260.386 147.791,262.22 150,264.5C 150.49,265.793 150.657,267.127 150.5,268.5C 153.77,268.679 155.437,270.512 155.5,274C 155.15,275.257 154.483,275.591 153.5,275C 149.486,270.919 145.819,266.586 142.5,262C 140.695,261.028 139.028,259.861 137.5,258.5C 135.807,260.279 133.807,260.779 131.5,260C 119.063,220.3 106.563,179.8 94,138.5C 91.5119,142.325 88.0119,144.492 83.5,145C 80.9756,146.883 79.6423,149.383 79.5,152.5C 77.5714,152.769 75.9047,152.269 74.5,151C 77.7702,145.379 82.4368,141.713 88.5,140C 120.069,115.474 152.069,91.1403 184.5,67C 179.833,66.6667 175.167,66.3333 170.5,66C 169.167,65.3333 169.167,64.6667 170.5,64C 176.833,63.6667 183.167,63.3333 189.5,63C 190.416,62.7216 191.082,62.2216 191.5,61.5 Z"/></g>
<g><path style="opacity:1" fill="#555555" d="M 488.5,64.5 C 482.409,64.2114 476.409,64.5447 470.5,65.5C 473.087,64.1836 476.087,63.517 479.5,63.5C 482.686,63.502 485.686,63.8353 488.5,64.5 Z"/></g>
<g><path style="opacity:1" fill="#070707" d="M 839.5,118.5 C 839.173,123.544 839.506,128.544 840.5,133.5C 841.107,133.376 841.44,133.043 841.5,132.5C 874.978,109.924 908.311,87.0903 941.5,64C 943.5,63.3333 945.5,63.3333 947.5,64C 948.337,65.0113 948.67,66.1779 948.5,67.5C 952.853,67.7646 957.187,68.2646 961.5,69C 967.386,73.8866 973.553,78.3866 980,82.5C 980.749,83.635 980.583,84.635 979.5,85.5C 973.83,83.003 968.83,79.503 964.5,75C 960.187,74.2646 955.853,73.7646 951.5,73.5C 971.726,135.346 992.06,197.179 1012.5,259C 1012.24,260.261 1011.57,261.261 1010.5,262C 1000.79,265.486 990.788,267.152 980.5,267C 978.981,265.649 977.648,264.149 976.5,262.5C 984.591,260.992 992.591,259.158 1000.5,257C 948.333,218.167 896.167,179.333 844,140.5C 843.044,141.579 842.211,142.745 841.5,144C 838.358,143.912 835.858,142.412 834,139.5C 833.168,131.147 833.335,122.813 834.5,114.5C 836.186,115.857 837.852,117.19 839.5,118.5 Z"/></g>
<g><path style="opacity:1" fill="#070707" d="M 488.5,64.5 C 492.17,64.811 495.17,66.4777 497.5,69.5C 497.167,69.8333 496.833,70.1667 496.5,70.5C 491.22,69.3822 485.887,69.2155 480.5,70C 507.5,91.6667 534.5,113.333 561.5,135C 565.063,137.232 565.23,139.398 562,141.5C 555.725,139.443 549.225,138.943 542.5,140C 535.176,146.834 527.176,152.667 518.5,157.5C 515.61,155.957 513.943,153.624 513.5,150.5C 514.873,150.657 516.207,150.49 517.5,150C 522.097,147.078 526.43,143.744 530.5,140C 503.835,139.5 477.169,139.333 450.5,139.5C 447.2,151.551 444.033,163.551 441,175.5C 468.707,199.542 496.707,223.209 525,246.5C 525.531,250.283 524.031,251.283 520.5,249.5C 519.763,252.238 518.096,253.905 515.5,254.5C 514.26,255.659 512.926,256.659 511.5,257.5C 511.167,257.5 510.833,257.5 510.5,257.5C 507.562,257.977 504.896,258.977 502.5,260.5C 498.176,261.726 493.842,263.059 489.5,264.5C 486.719,264.393 484.719,263.059 483.5,260.5C 484.325,259.614 485.325,259.281 486.5,259.5C 486.5,258.5 486.5,257.5 486.5,256.5C 489.545,256.492 492.545,256.159 495.5,255.5C 498.983,255.673 501.983,254.673 504.5,252.5C 505.718,251.839 507.051,251.172 508.5,250.5C 478.841,249.5 449.174,249.167 419.5,249.5C 419.5,250.5 419.5,251.5 419.5,252.5C 415.698,251.221 412.531,248.888 410,245.5C 409.589,241.77 408.256,238.436 406,235.5C 405.333,230.833 405.333,226.167 406,221.5C 407.333,222.833 408.667,224.167 410,225.5C 410.886,230.47 411.552,235.47 412,240.5C 413.101,242.394 414.434,243.061 416,242.5C 421.964,220.941 428.131,199.441 434.5,178C 422.025,166.532 409.191,155.365 396,144.5C 395.333,147.167 395.333,149.833 396,152.5C 397.658,157.164 399.158,161.83 400.5,166.5C 400.802,169.059 400.468,171.393 399.5,173.5C 396.065,171.19 394.565,167.856 395,163.5C 394.333,162.833 393.667,162.167 393,161.5C 391.594,153.04 390.427,144.54 389.5,136C 389.492,132.788 390.492,132.121 392.5,134C 410.83,134.5 429.164,134.667 447.5,134.5C 453.689,111.764 460.189,89.0972 467,66.5C 468.011,65.6634 469.178,65.33 470.5,65.5C 476.409,64.5447 482.409,64.2114 488.5,64.5 Z"/></g>
<g><path style="opacity:1" fill="#fefefe" d="M 190.5,68.5 C 191.191,72.8993 191.858,77.3993 192.5,82C 192.833,82.1667 193.167,82.3333 193.5,82.5C 194.491,78.5546 194.824,74.5546 194.5,70.5C 196.783,70.6079 198.783,71.4412 200.5,73C 226.216,93.0508 252.216,112.717 278.5,132C 243.847,133.182 243.847,134.682 278.5,136.5C 280.678,137.979 283.012,139.312 285.5,140.5C 274.901,174.464 264.401,208.464 254,242.5C 252.26,241.284 251.26,239.618 251,237.5C 250.333,236.167 249.667,236.167 249,237.5C 249.229,241.296 250.063,244.963 251.5,248.5C 251.449,250.1 251.116,251.6 250.5,253C 211.833,253.667 173.167,253.667 134.5,253C 138.998,249.956 143.998,248.289 149.5,248C 151.036,246.401 151.536,244.567 151,242.5C 148.342,241.306 147.176,242.306 147.5,245.5C 142.81,245.619 138.476,246.952 134.5,249.5C 133.914,249.291 133.414,248.957 133,248.5C 121.692,211.578 110.192,174.745 98.5,138C 100.387,137.837 101.887,138.671 103,140.5C 105.348,144.261 107.848,147.928 110.5,151.5C 112.115,152.154 113.782,152.654 115.5,153C 119.763,159.294 120.93,158.794 119,151.5C 116.929,150.475 114.762,149.642 112.5,149C 109.079,144.7 105.746,140.2 102.5,135.5C 131.876,113.111 161.209,90.778 190.5,68.5 Z"/></g>
<g><path style="opacity:1" fill="#fefefe" d="M 475.5,95.5 C 475.56,96.0431 475.893,96.3764 476.5,96.5C 477.497,89.1968 477.831,81.8635 477.5,74.5C 502.292,94.1201 526.959,113.953 551.5,134C 549.5,134.667 547.5,134.667 545.5,134C 542.413,129.726 538.413,126.893 533.5,125.5C 532.5,125.833 531.5,126.167 530.5,126.5C 532.438,130.107 535.438,132.107 539.5,132.5C 539.291,133.086 538.957,133.586 538.5,134C 509.828,134.833 481.161,134.667 452.5,133.5C 458.433,113.535 464.266,93.5349 470,73.5C 470.333,79.5 470.667,85.5 471,91.5C 472.371,93.0414 473.871,94.3747 475.5,95.5 Z"/></g>
<g><path style="opacity:1" fill="#848484" d="M 477.5,74.5 C 477.831,81.8635 477.497,89.1968 476.5,96.5C 475.893,96.3764 475.56,96.0431 475.5,95.5C 476.134,87.9271 476.801,80.9271 477.5,74.5 Z"/></g>
<g><path style="opacity:1" fill="#fefefe" d="M 937.5,73.5 C 937.5,74.5 937.5,75.5 937.5,76.5C 936.857,78.0764 935.857,79.4097 934.5,80.5C 933.883,80.6107 933.383,80.944 933,81.5C 932.505,83.4727 932.338,85.4727 932.5,87.5C 932.737,88.791 932.404,89.791 931.5,90.5C 930.596,91.209 930.263,92.209 930.5,93.5C 929.5,93.5 928.5,93.5 927.5,93.5C 927.263,94.791 927.596,95.791 928.5,96.5C 929.5,98.1667 930.833,99.5 932.5,100.5C 932.56,101.043 932.893,101.376 933.5,101.5C 934.524,100.147 935.857,99.4802 937.5,99.5C 937.5,98.1667 937.5,96.8333 937.5,95.5C 937.933,92.8344 938.433,90.1677 939,87.5C 941.781,84.0008 944.447,80.3342 947,76.5C 965.902,133.537 984.568,190.537 1003,247.5C 999.462,241.286 995.128,235.619 990,230.5C 989.333,232.167 989.333,233.833 990,235.5C 993.116,239.305 995.95,243.305 998.5,247.5C 998.333,247.833 998.167,248.167 998,248.5C 947.831,211.845 897.998,174.845 848.5,137.5C 854.014,136.833 859.681,136.167 865.5,135.5C 865.376,134.893 865.043,134.56 864.5,134.5C 863.188,133.855 862.188,132.855 861.5,131.5C 859.234,130.686 856.9,130.186 854.5,130C 882.065,110.92 909.732,92.0867 937.5,73.5 Z"/></g>
<g><path style="opacity:1" fill="#7b7b7b" d="M 937.5,76.5 C 937.5,75.5 937.5,74.5 937.5,73.5C 938.571,71.6229 939.905,70.9563 941.5,71.5C 939.851,72.9814 938.518,74.6481 937.5,76.5 Z"/></g>
<g><path style="opacity:1" fill="#6c6c6c" d="M 934.5,80.5 C 934.073,83.0098 933.407,85.3432 932.5,87.5C 932.338,85.4727 932.505,83.4727 933,81.5C 933.383,80.944 933.883,80.6107 934.5,80.5 Z"/></g>
<g><path style="opacity:1" fill="#737373" d="M 931.5,90.5 C 931.5,91.8333 931.5,93.1667 931.5,94.5C 929.821,94.2852 928.821,94.9519 928.5,96.5C 927.596,95.791 927.263,94.791 927.5,93.5C 928.5,93.5 929.5,93.5 930.5,93.5C 930.263,92.209 930.596,91.209 931.5,90.5 Z"/></g>
<g><path style="opacity:1" fill="#7e7e7e" d="M 937.5,95.5 C 937.5,96.8333 937.5,98.1667 937.5,99.5C 935.857,99.4802 934.524,100.147 933.5,101.5C 932.893,101.376 932.56,101.043 932.5,100.5C 933.467,99.1938 934.801,98.5271 936.5,98.5C 936.263,97.209 936.596,96.209 937.5,95.5 Z"/></g>
<g><path style="opacity:1" fill="#858585" d="M 839.5,118.5 C 840.167,123.167 840.833,127.833 841.5,132.5C 841.44,133.043 841.107,133.376 840.5,133.5C 839.506,128.544 839.173,123.544 839.5,118.5 Z"/></g>
<g><path style="opacity:1" fill="#5d5d5d" d="M 864.5,134.5 C 865.043,134.56 865.376,134.893 865.5,135.5C 859.681,136.167 854.014,136.833 848.5,137.5C 847.957,137.44 847.624,137.107 847.5,136.5C 853.319,135.833 858.986,135.167 864.5,134.5 Z"/></g>
<g><path style="opacity:1" fill="#fdfdfd" d="M 406.5,140.5 C 419.339,139.175 432.339,139.175 445.5,140.5C 442.487,150.885 439.321,161.219 436,171.5C 425.207,163.043 414.707,154.209 404.5,145C 405.5,144.333 406.5,144.333 407.5,145C 413.248,149.088 419.582,151.755 426.5,153C 430.721,158.043 431.888,157.543 430,151.5C 428.833,150.333 427.667,149.167 426.5,148C 422.814,147.441 419.147,146.774 415.5,146C 412.397,144.311 409.397,142.478 406.5,140.5 Z"/></g>
<g><path style="opacity:1" fill="#030303" d="M 707.5,139.5 C 709.28,140.99 709.946,142.99 709.5,145.5C 693.119,145.182 676.786,145.515 660.5,146.5C 658.512,145.711 658.179,144.545 659.5,143C 675.177,142.833 690.844,142.333 706.5,141.5C 706.863,140.817 707.196,140.15 707.5,139.5 Z"/></g>
<g><path style="opacity:1" fill="#8c8c8c" d="M 400.5,166.5 C 401.8,169.024 401.8,171.691 400.5,174.5C 399.893,174.376 399.56,174.043 399.5,173.5C 400.468,171.393 400.802,169.059 400.5,166.5 Z"/></g>
<g><path style="opacity:1" fill="#fefefe" d="M 507.5,238.5 C 503.505,239.117 500.172,237.951 497.5,235C 494.535,233.502 491.535,233.335 488.5,234.5C 491.642,238.832 495.975,240.832 501.5,240.5C 503.01,241.836 504.677,243.003 506.5,244C 483.474,244.818 463.14,244.651 445.5,243.5C 445.297,241.61 445.963,240.11 447.5,239C 446.29,237.961 445.29,236.794 444.5,235.5C 443.903,234.861 443.07,234.528 442,234.5C 440.624,234.684 439.791,235.351 439.5,236.5C 434.657,238.616 429.491,240.283 424,241.5C 423.167,241.167 422.333,240.833 421.5,240.5C 427.433,220.535 433.266,200.535 439,180.5C 461.731,200.073 484.564,219.407 507.5,238.5 Z"/></g>
<g><path style="opacity:1" fill="#060606" d="M 715.5,182.5 C 718.462,182.117 719.462,183.117 718.5,185.5C 712.691,186.68 707.025,188.18 701.5,190C 687.013,190.98 672.68,190.647 658.5,189C 672.346,187.684 686.346,187.017 700.5,187C 705.53,185.363 710.53,183.863 715.5,182.5 Z"/></g>
<g><path style="opacity:1" fill="#2a2a2a" d="M 507.5,238.5 C 506.118,239.277 504.118,239.944 501.5,240.5C 495.975,240.832 491.642,238.832 488.5,234.5C 491.535,233.335 494.535,233.502 497.5,235C 500.172,237.951 503.505,239.117 507.5,238.5 Z"/></g>
<g><path style="opacity:1" fill="#777777" d="M 444.5,235.5 C 442.708,235.366 441.042,235.699 439.5,236.5C 441.042,235.699 442.708,235.366 444.5,235.5 Z"/></g>
<g><path style="opacity:1" fill="#646464" d="M 504.5,252.5 C 501.983,254.673 498.983,255.673 495.5,255.5C 498.31,254.181 501.31,253.181 504.5,252.5 Z"/></g>
<g><path style="opacity:1" fill="#787878" d="M 515.5,254.5 C 515.5,255.5 515.5,256.5 515.5,257.5C 514.167,257.5 512.833,257.5 511.5,257.5C 512.926,256.659 514.26,255.659 515.5,254.5 Z"/></g>
<g><path style="opacity:1" fill="#656565" d="M 510.5,257.5 C 508.293,259.515 505.626,260.515 502.5,260.5C 504.896,258.977 507.562,257.977 510.5,257.5 Z"/></g>
</svg>
