<?xml version="1.0" encoding="UTF-8"?>
<!DOCTYPE svg PUBLIC "-//W3C//DTD SVG 1.1//EN" "http://www.w3.org/Graphics/SVG/1.1/DTD/svg11.dtd">
<svg xmlns="http://www.w3.org/2000/svg" version="1.1" width="1785px" height="972px" style="shape-rendering:geometricPrecision; text-rendering:geometricPrecision; image-rendering:optimizeQuality; fill-rule:evenodd; clip-rule:evenodd" xmlns:xlink="http://www.w3.org/1999/xlink">
<g><path style="opacity:1" fill="#fefefe" d="M -0.5,-0.5 C 594.5,-0.5 1189.5,-0.5 1784.5,-0.5C 1784.5,323.5 1784.5,647.5 1784.5,971.5C 1189.5,971.5 594.5,971.5 -0.5,971.5C -0.5,647.5 -0.5,323.5 -0.5,-0.5 Z"/></g>
<g><path style="opacity:1" fill="#0f0f0f" d="M 1052.5,413.5 C 1058.23,420.783 1063.07,428.783 1067,437.5C 1067.99,441.442 1068.66,445.442 1069,449.5C 1069.67,450.167 1070.33,450.833 1071,451.5C 1073.75,461.221 1075.42,471.221 1076,481.5C 1076.67,482.833 1077.33,484.167 1078,485.5C 1081.12,510.544 1081.29,535.711 1078.5,561C 1076.67,567.031 1073.67,572.531 1069.5,577.5C 1068.37,578.262 1067.21,578.929 1066,579.5C 1063.43,584.018 1060.27,588.018 1056.5,591.5C 1054.9,590.965 1054.4,589.965 1055,588.5C 1059.23,584.357 1063.23,580.023 1067,575.5C 1070.5,571.328 1073.17,566.662 1075,561.5C 1075.67,558.167 1076.33,554.833 1077,551.5C 1077.67,534.167 1077.67,516.833 1077,499.5C 1073.61,485.12 1070.95,470.453 1069,455.5C 1068.74,453.382 1067.74,451.716 1066,450.5C 1065.66,446.442 1064.99,442.442 1064,438.5C 1060.68,431.742 1057.01,425.409 1053,419.5C 1051.76,417.452 1051.59,415.452 1052.5,413.5 Z"/></g>
<g><path style="opacity:1" fill="#131313" d="M 82.5,417.5 C 83.9953,417.415 84.9953,418.081 85.5,419.5C 76.6,433.291 71.1,448.291 69,464.5C 67.784,475.226 66.4507,485.892 65,496.5C 64,498.833 63,501.167 62,503.5C 61.3333,512.833 61.3333,522.167 62,531.5C 62.6667,532.167 63.3333,532.833 64,533.5C 69.2214,551.717 78.8881,567.384 93,580.5C 93.1198,584.011 91.7865,584.345 89,581.5C 81.9561,573.457 75.2895,565.124 69,556.5C 66.0322,549.309 63.3656,541.975 61,534.5C 60.3333,533.833 59.6667,533.167 59,532.5C 58.3333,522.833 58.3333,513.167 59,503.5C 60.2862,500.595 61.2862,497.595 62,494.5C 63.4563,478.318 65.7896,462.318 69,446.5C 72.9617,436.577 77.4617,426.91 82.5,417.5 Z"/></g>
<g><path style="opacity:1" fill="#0f0f0f" d="M 599.5,417.5 C 600.993,418.312 601.66,419.645 601.5,421.5C 601.167,422.5 600.833,423.5 600.5,424.5C 597.867,425.301 596.033,426.967 595,429.5C 591.672,438.746 588.338,448.079 585,457.5C 581.061,478.144 578.894,498.978 578.5,520C 578.667,527.5 578.833,535 579,542.5C 581.197,548.091 583.197,553.758 585,559.5C 585.333,562.167 585.667,564.833 586,567.5C 586.667,568.167 587.333,568.833 588,569.5C 589.434,575.516 591.267,581.349 593.5,587C 596.526,590.713 599.193,594.713 601.5,599C 600.863,600.713 599.863,600.879 598.5,599.5C 596.265,595.931 593.765,592.597 591,589.5C 588.71,583.255 586.71,576.921 585,570.5C 584.333,569.833 583.667,569.167 583,568.5C 581.834,559.84 579.501,551.507 576,543.5C 575.333,527.833 575.333,512.167 576,496.5C 577.348,482.755 579.348,469.088 582,455.5C 584.751,449.734 586.751,443.734 588,437.5C 590.297,432.906 592.63,428.239 595,423.5C 596.011,422.663 597.178,422.33 598.5,422.5C 598.366,420.708 598.699,419.042 599.5,417.5 Z"/></g>
<g><path style="opacity:1" fill="#010101" d="M 798.5,418.5 C 804.488,418.664 805.821,421.164 802.5,426C 796.403,426.147 795.07,423.647 798.5,418.5 Z"/></g>
<g><path style="opacity:1" fill="#0c0c0c" d="M 814.5,418.5 C 819.668,419.339 820.668,421.839 817.5,426C 814.186,427.165 812.186,425.998 811.5,422.5C 812.172,420.84 813.172,419.507 814.5,418.5 Z"/></g>
<g><path style="opacity:1" fill="#090909" d="M 829.5,418.5 C 835.488,418.664 836.821,421.164 833.5,426C 827.403,426.147 826.07,423.647 829.5,418.5 Z"/></g>
<g><path style="opacity:1" fill="#0b0b0b" d="M 512.5,418.5 C 514.586,420.428 516.753,422.428 519,424.5C 521.667,429.833 524.333,435.167 527,440.5C 532.561,471.472 534.561,502.805 533,534.5C 529.798,544.281 527.298,554.281 525.5,564.5C 524.178,564.33 523.011,564.663 522,565.5C 518.361,576.777 513.195,587.111 506.5,596.5C 505.692,596.192 505.025,595.692 504.5,595C 510.354,583.46 516.354,571.96 522.5,560.5C 530.18,538.86 532.68,516.527 530,493.5C 529.951,476.144 527.951,459.144 524,442.5C 520.768,434.461 516.601,426.961 511.5,420C 512.056,419.617 512.389,419.117 512.5,418.5 Z"/></g>
<g><path style="opacity:1" fill="#000000" d="M 931.5,420.5 C 933.903,420.393 935.736,421.393 937,423.5C 951.2,440.745 965.033,458.245 978.5,476C 976.398,479.23 974.232,479.063 972,475.5C 957.8,458.255 943.967,440.755 930.5,423C 930.743,422.098 931.077,421.265 931.5,420.5 Z"/></g>
<g><path style="opacity:1" fill="#030303" d="M 688.5,422.5 C 695.841,422.334 703.174,422.5 710.5,423C 711.716,424.74 713.382,425.74 715.5,426C 717.127,432.368 718.461,438.868 719.5,445.5C 719.167,446.5 718.833,447.5 718.5,448.5C 717.914,448.291 717.414,447.957 717,447.5C 715.471,441.118 714.138,434.785 713,428.5C 703.333,442.167 693.667,455.833 684,469.5C 682.434,471.993 680.434,473.993 678,475.5C 675.812,474.941 675.146,473.607 676,471.5C 686.956,456.421 697.789,441.255 708.5,426C 702.167,425.333 695.833,425.333 689.5,426C 687.359,428.603 685.026,428.936 682.5,427C 684.141,424.837 686.141,423.337 688.5,422.5 Z"/></g>
<g><path style="opacity:1" fill="#0d0d0d" d="M 1271.5,422.5 C 1273.27,423.314 1273.77,424.648 1273,426.5C 1268.88,433.894 1264.38,441.061 1259.5,448C 1259.02,452.092 1257.85,455.925 1256,459.5C 1254.49,484.147 1254.16,508.814 1255,533.5C 1256.73,541.431 1258.23,549.431 1259.5,557.5C 1261.67,559.982 1263.67,562.648 1265.5,565.5C 1269.19,567.847 1271.69,571.18 1273,575.5C 1278.78,580.503 1284.28,585.669 1289.5,591C 1289.17,591.5 1288.83,592 1288.5,592.5C 1287.09,591.194 1285.42,590.36 1283.5,590C 1282.93,588.795 1282.26,587.628 1281.5,586.5C 1275.07,582.659 1270.24,577.326 1267,570.5C 1263.27,568.03 1260.77,564.697 1259.5,560.5C 1258.18,560.67 1257.01,560.337 1256,559.5C 1251.12,526.023 1250.12,492.357 1253,458.5C 1254.79,454.344 1256.12,450.011 1257,445.5C 1262.11,438.02 1266.94,430.354 1271.5,422.5 Z"/></g>
<g><path style="opacity:1" fill="#010101" d="M 1483.5,423.5 C 1489.49,423.664 1490.82,426.164 1487.5,431C 1481.4,431.147 1480.07,428.647 1483.5,423.5 Z"/></g>
<g><path style="opacity:1" fill="#0c0c0c" d="M 1499.5,423.5 C 1504.67,424.339 1505.67,426.839 1502.5,431C 1499.19,432.165 1497.19,430.998 1496.5,427.5C 1497.17,425.84 1498.17,424.507 1499.5,423.5 Z"/></g>
<g><path style="opacity:1" fill="#090909" d="M 1514.5,423.5 C 1520.49,423.664 1521.82,426.164 1518.5,431C 1512.4,431.147 1511.07,428.647 1514.5,423.5 Z"/></g>
<g><path style="opacity:1" fill="#030303" d="M 1373.5,427.5 C 1380.84,427.334 1388.17,427.5 1395.5,428C 1396.72,429.74 1398.38,430.74 1400.5,431C 1402.13,437.368 1403.46,443.868 1404.5,450.5C 1404.17,451.5 1403.83,452.5 1403.5,453.5C 1402.91,453.291 1402.41,452.957 1402,452.5C 1400.47,446.118 1399.14,439.785 1398,433.5C 1388.33,447.167 1378.67,460.833 1369,474.5C 1367.43,476.993 1365.43,478.993 1363,480.5C 1360.81,479.941 1360.15,478.607 1361,476.5C 1371.96,461.421 1382.79,446.255 1393.5,431C 1387.17,430.333 1380.83,430.333 1374.5,431C 1372.36,433.603 1370.03,433.936 1367.5,432C 1369.14,429.837 1371.14,428.337 1373.5,427.5 Z"/></g>
<g><path style="opacity:1" fill="#010101" d="M 1631.5,432.5 C 1633.95,432.01 1635.62,432.843 1636.5,435C 1635.91,436.882 1634.57,437.882 1632.5,438C 1550.27,460.307 1467.94,482.14 1385.5,503.5C 1385.5,504.5 1385.5,505.5 1385.5,506.5C 1395.07,506.205 1404.57,505.205 1414,503.5C 1415.97,503.309 1417.47,503.976 1418.5,505.5C 1406.62,508.389 1394.62,509.389 1382.5,508.5C 1382.07,507.707 1381.74,506.873 1381.5,506C 1382.54,503.226 1383.37,500.393 1384,497.5C 1386.35,492.866 1388.52,488.199 1390.5,483.5C 1391.5,483.833 1392.17,484.5 1392.5,485.5C 1391,489.952 1389.5,494.286 1388,498.5C 1469.32,476.713 1550.49,454.713 1631.5,432.5 Z"/></g>
<g><path style="opacity:1" fill="#111111" d="M 1712.5,434.5 C 1715.65,434.211 1718.65,434.711 1721.5,436C 1724.88,441.253 1728.38,446.42 1732,451.5C 1736.12,465.747 1740.12,480.081 1744,494.5C 1744.18,501.708 1745.18,508.708 1747,515.5C 1747.67,529.5 1747.67,543.5 1747,557.5C 1744.35,567.448 1741.69,577.448 1739,587.5C 1732.66,597.184 1728.16,607.684 1725.5,619C 1724.39,620.394 1723.05,621.561 1721.5,622.5C 1720.5,622.167 1719.83,621.5 1719.5,620.5C 1720.49,619.335 1721.49,618.168 1722.5,617C 1725.49,606.186 1729.99,596.019 1736,586.5C 1737.8,577.6 1740.14,568.934 1743,560.5C 1744.58,545.88 1744.91,531.213 1744,516.5C 1742.18,509.708 1741.18,502.708 1741,495.5C 1736.83,481.161 1732.83,466.828 1729,452.5C 1725.66,447.985 1722.49,443.318 1719.5,438.5C 1717.22,437.787 1714.89,437.287 1712.5,437C 1711.4,436.23 1711.4,435.397 1712.5,434.5 Z"/></g>
<g><path style="opacity:1" fill="#141414" d="M 171.5,487.5 C 176.541,492.56 180.874,498.227 184.5,504.5C 184.267,505.932 183.6,506.432 182.5,506C 178.896,501.014 175.062,496.18 171,491.5C 162.855,489.081 161.689,484.914 167.5,479C 171.362,475.635 175.362,472.468 179.5,469.5C 181.585,467.148 183.085,464.482 184,461.5C 184.991,462.43 185.491,463.596 185.5,465C 184.799,467.38 183.633,469.547 182,471.5C 177.515,475.408 172.848,479.074 168,482.5C 166.762,485.926 167.929,487.592 171.5,487.5 Z"/></g>
<g><path style="opacity:1" fill="#050505" d="M 981.5,465.5 C 982.117,465.611 982.617,465.944 983,466.5C 983.897,472.806 984.397,479.139 984.5,485.5C 978.824,485.666 973.157,485.499 967.5,485C 966.167,484.333 966.167,483.667 967.5,483C 972.155,482.501 976.821,482.334 981.5,482.5C 980.487,476.77 980.487,471.103 981.5,465.5 Z"/></g>
<g><path style="opacity:1" fill="#0a0a0a" d="M 642.5,476.5 C 645.119,476.232 647.619,476.565 650,477.5C 655.735,492.872 661.568,508.206 667.5,523.5C 665.257,524.474 662.924,524.808 660.5,524.5C 659.376,520.461 658.043,516.461 656.5,512.5C 649.5,511.167 642.5,511.167 635.5,512.5C 633.562,516.314 632.229,520.314 631.5,524.5C 629.076,524.808 626.743,524.474 624.5,523.5C 630.508,507.805 636.508,492.138 642.5,476.5 Z"/></g>
<g><path style="opacity:1" fill="#0b0b0b" d="M 996.5,476.5 C 1003.17,476.334 1009.84,476.5 1016.5,477C 1025,480.952 1026.84,487.118 1022,495.5C 1020.08,496.542 1018.25,497.708 1016.5,499C 1027.07,502.029 1029.9,508.529 1025,518.5C 1023.27,520.617 1021.1,522.117 1018.5,523C 1011.25,524.391 1003.92,524.891 996.5,524.5C 996.5,508.5 996.5,492.5 996.5,476.5 Z"/></g>
<g><path style="opacity:1" fill="#0a0a0a" d="M 122.5,478.5 C 125.119,478.232 127.619,478.565 130,479.5C 135.735,494.872 141.568,510.206 147.5,525.5C 145.257,526.474 142.924,526.808 140.5,526.5C 139.376,522.461 138.043,518.461 136.5,514.5C 129.5,513.167 122.5,513.167 115.5,514.5C 113.562,518.314 112.229,522.314 111.5,526.5C 109.076,526.808 106.743,526.474 104.5,525.5C 110.508,509.805 116.508,494.138 122.5,478.5 Z"/></g>
<g><path style="opacity:1" fill="#0b0b0b" d="M 476.5,478.5 C 483.175,478.334 489.842,478.5 496.5,479C 505.002,482.952 506.835,489.118 502,497.5C 500.082,498.542 498.249,499.708 496.5,501C 507.07,504.029 509.904,510.529 505,520.5C 503.269,522.617 501.102,524.117 498.5,525C 491.254,526.391 483.921,526.891 476.5,526.5C 476.5,510.5 476.5,494.5 476.5,478.5 Z"/></g>
<g><path style="opacity:1" fill="#0a0a0a" d="M 1324.5,481.5 C 1327.12,481.232 1329.62,481.565 1332,482.5C 1337.74,497.872 1343.57,513.206 1349.5,528.5C 1347.26,529.474 1344.92,529.808 1342.5,529.5C 1341.38,525.461 1340.04,521.461 1338.5,517.5C 1331.5,516.167 1324.5,516.167 1317.5,517.5C 1315.56,521.314 1314.23,525.314 1313.5,529.5C 1311.08,529.808 1308.74,529.474 1306.5,528.5C 1312.51,512.805 1318.51,497.138 1324.5,481.5 Z"/></g>
<g><path style="opacity:1" fill="#0b0b0b" d="M 1678.5,481.5 C 1685.17,481.334 1691.84,481.5 1698.5,482C 1707,485.952 1708.84,492.118 1704,500.5C 1702.08,501.542 1700.25,502.708 1698.5,504C 1709.07,507.029 1711.9,513.529 1707,523.5C 1705.27,525.617 1703.1,527.117 1700.5,528C 1693.25,529.391 1685.92,529.891 1678.5,529.5C 1678.5,513.5 1678.5,497.5 1678.5,481.5 Z"/></g>
<g><path style="opacity:1" fill="#000000" d="M 171.5,487.5 C 170.272,485.99 170.272,484.49 171.5,483C 259.833,482.5 348.166,482.333 436.5,482.5C 436.5,484.167 436.5,485.833 436.5,487.5C 348.167,487.5 259.833,487.5 171.5,487.5 Z"/></g>
<g><path style="opacity:1" fill="#efefef" d="M 1002.5,481.5 C 1006.18,481.335 1009.85,481.501 1013.5,482C 1019.35,485.451 1020.02,489.785 1015.5,495C 1011.27,496.29 1006.94,496.79 1002.5,496.5C 1002.5,491.5 1002.5,486.5 1002.5,481.5 Z"/></g>
<g><path style="opacity:1" fill="#efefef" d="M 482.5,483.5 C 486.182,483.335 489.848,483.501 493.5,484C 499.353,487.451 500.019,491.785 495.5,497C 491.27,498.29 486.936,498.79 482.5,498.5C 482.5,493.5 482.5,488.5 482.5,483.5 Z"/></g>
<g><path style="opacity:1" fill="#f2f2f2" d="M 653.5,505.5 C 648.305,505.821 643.305,505.487 638.5,504.5C 640.696,497.079 643.196,489.746 646,482.5C 648.607,490.154 651.107,497.821 653.5,505.5 Z"/></g>
<g><path style="opacity:1" fill="#0b0b0b" d="M 1109.5,486.5 C 1125.19,486.229 1140.86,486.729 1156.5,488C 1157.33,488.915 1158.33,489.581 1159.5,490C 1166.79,491.081 1174.12,491.747 1181.5,492C 1181.96,492.414 1182.29,492.914 1182.5,493.5C 1176.53,494.664 1170.53,494.83 1164.5,494C 1161.25,493.75 1158.25,492.75 1155.5,491C 1140.19,489.877 1124.86,489.21 1109.5,489C 1108.4,488.23 1108.4,487.397 1109.5,486.5 Z"/></g>
<g><path style="opacity:1" fill="#f2f2f2" d="M 133.5,507.5 C 128.305,507.821 123.305,507.487 118.5,506.5C 120.696,499.079 123.196,491.746 126,484.5C 128.607,492.154 131.107,499.821 133.5,507.5 Z"/></g>
<g><path style="opacity:1" fill="#efefef" d="M 1684.5,486.5 C 1688.18,486.335 1691.85,486.501 1695.5,487C 1701.35,490.451 1702.02,494.785 1697.5,500C 1693.27,501.29 1688.94,501.79 1684.5,501.5C 1684.5,496.5 1684.5,491.5 1684.5,486.5 Z"/></g>
<g><path style="opacity:1" fill="#f2f2f2" d="M 1335.5,510.5 C 1330.31,510.821 1325.31,510.487 1320.5,509.5C 1322.7,502.079 1325.2,494.746 1328,487.5C 1330.61,495.154 1333.11,502.821 1335.5,510.5 Z"/></g>
<g><path style="opacity:1" fill="#f1f1f1" d="M 1002.5,502.5 C 1007.63,502.112 1012.63,502.612 1017.5,504C 1022.71,511.255 1021.05,516.255 1012.5,519C 1009.5,519.667 1006.5,519.667 1003.5,519C 1002.53,513.593 1002.19,508.093 1002.5,502.5 Z"/></g>
<g><path style="opacity:1" fill="#0f0f0f" d="M 436.5,503.5 C 442.274,503.267 447.774,504.267 453,506.5C 453.667,509.833 453.667,513.167 453,516.5C 448.869,520.208 444.369,523.374 439.5,526C 438.663,527.011 438.33,528.178 438.5,529.5C 437.127,529.343 435.793,529.51 434.5,530C 433.5,531.667 432.5,533.333 431.5,535C 429.926,535.699 428.593,535.365 427.5,534C 432.359,526.99 438.692,521.657 446.5,518C 448.19,516.01 449.523,513.843 450.5,511.5C 450.43,510.228 450.097,509.062 449.5,508C 445.181,507.24 440.848,506.573 436.5,506C 435.402,505.23 435.402,504.397 436.5,503.5 Z"/></g>
<g><path style="opacity:1" fill="#f1f1f1" d="M 482.5,504.5 C 487.628,504.112 492.628,504.612 497.5,506C 502.714,513.255 501.048,518.255 492.5,521C 489.5,521.667 486.5,521.667 483.5,521C 482.527,515.593 482.193,510.093 482.5,504.5 Z"/></g>
<g><path style="opacity:1" fill="#3e3e3e" d="M 638.5,504.5 C 643.305,505.487 648.305,505.821 653.5,505.5C 648.32,506.815 642.986,506.815 637.5,505.5C 637.624,504.893 637.957,504.56 638.5,504.5 Z"/></g>
<g><path style="opacity:1" fill="#3e3e3e" d="M 118.5,506.5 C 123.305,507.487 128.305,507.821 133.5,507.5C 128.32,508.815 122.986,508.815 117.5,507.5C 117.624,506.893 117.957,506.56 118.5,506.5 Z"/></g>
<g><path style="opacity:1" fill="#f1f1f1" d="M 1684.5,507.5 C 1689.63,507.112 1694.63,507.612 1699.5,509C 1704.71,516.255 1703.05,521.255 1694.5,524C 1691.5,524.667 1688.5,524.667 1685.5,524C 1684.53,518.593 1684.19,513.093 1684.5,507.5 Z"/></g>
<g><path style="opacity:1" fill="#000000" d="M 179.5,508.5 C 267.834,508.333 356.167,508.5 444.5,509C 445.833,510.333 445.833,511.667 444.5,513C 356.167,513.5 267.834,513.667 179.5,513.5C 179.5,511.833 179.5,510.167 179.5,508.5 Z"/></g>
<g><path style="opacity:1" fill="#0e0e0e" d="M 1638.5,522.5 C 1642.7,522.806 1644.7,520.806 1644.5,516.5C 1642.14,516.663 1639.81,516.497 1637.5,516C 1636.66,514.989 1636.33,513.822 1636.5,512.5C 1634.57,512.769 1632.9,512.269 1631.5,511C 1633.61,509.482 1635.95,509.149 1638.5,510C 1639.34,511.011 1639.67,512.178 1639.5,513.5C 1642.36,513.055 1644.86,513.722 1647,515.5C 1647.45,518.662 1646.95,521.662 1645.5,524.5C 1640.86,524.108 1638.53,526.108 1638.5,530.5C 1635.17,531.461 1633.5,533.794 1633.5,537.5C 1631.9,537.688 1630.56,537.188 1629.5,536C 1630.52,533.455 1631.69,530.955 1633,528.5C 1635.06,526.699 1636.9,524.699 1638.5,522.5 Z"/></g>
<g><path style="opacity:1" fill="#3e3e3e" d="M 1320.5,509.5 C 1325.31,510.487 1330.31,510.821 1335.5,510.5C 1330.32,511.815 1324.99,511.815 1319.5,510.5C 1319.62,509.893 1319.96,509.56 1320.5,509.5 Z"/></g>
<g><path style="opacity:1" fill="#000000" d="M 1638.5,522.5 C 1548.14,545.673 1457.81,569.006 1367.5,592.5C 1365.73,592.566 1364.73,591.732 1364.5,590C 1365.09,588.118 1366.43,587.118 1368.5,587C 1457.83,563.833 1547.17,540.667 1636.5,517.5C 1639.51,518.194 1640.18,519.861 1638.5,522.5 Z"/></g>
<g><path style="opacity:1" fill="#010101" d="M 1115.5,518.5 C 1134.53,518.142 1153.53,518.642 1172.5,520C 1172.96,520.414 1173.29,520.914 1173.5,521.5C 1171.5,521.833 1169.5,522.167 1167.5,522.5C 1150.18,521.754 1132.84,521.254 1115.5,521C 1114.4,520.23 1114.4,519.397 1115.5,518.5 Z"/></g>
<g><path style="opacity:1" fill="#020202" d="M 670.5,553.5 C 672.927,553.523 675.26,554.023 677.5,555C 681.106,557.147 684.773,559.147 688.5,561C 690.764,561.236 692.931,561.736 695,562.5C 695.167,562.833 695.333,563.167 695.5,563.5C 694.167,563.833 692.833,564.167 691.5,564.5C 687.815,563.894 684.482,562.727 681.5,561C 691.333,574.833 701.167,588.667 711,602.5C 711.045,606.824 709.379,607.49 706,604.5C 694.545,588.886 683.711,572.886 673.5,556.5C 673.167,557.5 672.833,558.5 672.5,559.5C 674.02,566.82 674.353,574.153 673.5,581.5C 672.914,581.291 672.414,580.957 672,580.5C 670.343,571.469 669.843,562.469 670.5,553.5 Z"/></g>
<g><path style="opacity:1" fill="#030303" d="M 992.5,555.5 C 996.7,555.914 997.533,557.914 995,561.5C 985.177,575.515 976.177,589.848 968,604.5C 968.903,603.299 970.069,602.465 971.5,602C 976.077,601.348 980.577,600.515 985,599.5C 986.23,600.275 986.563,601.275 986,602.5C 981.577,603.515 977.077,604.348 972.5,605C 968.712,608.186 964.379,609.186 959.5,608C 958.721,604.307 959.054,600.64 960.5,597C 957.746,595.42 957.912,594.254 961,593.5C 961.772,593.645 962.439,593.978 963,594.5C 963.155,596.856 963.155,599.189 963,601.5C 973.057,586.283 982.89,570.95 992.5,555.5 Z"/></g>
<g><path style="opacity:1" fill="#030303" d="M 1672.5,557.5 C 1676.7,557.914 1677.53,559.914 1675,563.5C 1665.18,577.515 1656.18,591.848 1648,606.5C 1648.9,605.299 1650.07,604.465 1651.5,604C 1656.08,603.348 1660.58,602.515 1665,601.5C 1666.23,602.275 1666.56,603.275 1666,604.5C 1661.58,605.515 1657.08,606.348 1652.5,607C 1648.71,610.186 1644.38,611.186 1639.5,610C 1638.72,606.307 1639.05,602.64 1640.5,599C 1637.75,597.42 1637.91,596.254 1641,595.5C 1641.77,595.645 1642.44,595.978 1643,596.5C 1643.16,598.856 1643.16,601.189 1643,603.5C 1653.06,588.283 1662.89,572.95 1672.5,557.5 Z"/></g>
<g><path style="opacity:1" fill="#010101" d="M 800.5,595.5 C 806.488,595.664 807.821,598.164 804.5,603C 798.403,603.147 797.07,600.647 800.5,595.5 Z"/></g>
<g><path style="opacity:1" fill="#0c0c0c" d="M 816.5,595.5 C 821.668,596.339 822.668,598.839 819.5,603C 816.186,604.165 814.186,602.998 813.5,599.5C 814.172,597.84 815.172,596.507 816.5,595.5 Z"/></g>
<g><path style="opacity:1" fill="#090909" d="M 831.5,595.5 C 837.488,595.664 838.821,598.164 835.5,603C 829.403,603.147 828.07,600.647 831.5,595.5 Z"/></g>
<g><path style="opacity:1" fill="#010101" d="M 1480.5,597.5 C 1486.49,597.664 1487.82,600.164 1484.5,605C 1478.4,605.147 1477.07,602.647 1480.5,597.5 Z"/></g>
<g><path style="opacity:1" fill="#0c0c0c" d="M 1496.5,597.5 C 1501.67,598.339 1502.67,600.839 1499.5,605C 1496.19,606.165 1494.19,604.998 1493.5,601.5C 1494.17,599.84 1495.17,598.507 1496.5,597.5 Z"/></g>
<g><path style="opacity:1" fill="#090909" d="M 1511.5,597.5 C 1517.49,597.664 1518.82,600.164 1515.5,605C 1509.4,605.147 1508.07,602.647 1511.5,597.5 Z"/></g>
</svg>
