<?xml version="1.0" encoding="UTF-8"?>
<!DOCTYPE svg PUBLIC "-//W3C//DTD SVG 1.1//EN" "http://www.w3.org/Graphics/SVG/1.1/DTD/svg11.dtd">
<svg xmlns="http://www.w3.org/2000/svg" version="1.1" width="1153px" height="356px" style="shape-rendering:geometricPrecision; text-rendering:geometricPrecision; image-rendering:optimizeQuality; fill-rule:evenodd; clip-rule:evenodd" xmlns:xlink="http://www.w3.org/1999/xlink">
<g><path style="opacity:1" fill="#fefefe" d="M -0.5,-0.5 C 383.833,-0.5 768.167,-0.5 1152.5,-0.5C 1152.5,118.167 1152.5,236.833 1152.5,355.5C 768.167,355.5 383.833,355.5 -0.5,355.5C -0.5,236.833 -0.5,118.167 -0.5,-0.5 Z"/></g>
<g><path style="opacity:1" fill="#020202" d="M 498.5,53.5 C 502.179,56.6815 506.512,58.5149 511.5,59C 512.337,60.0113 512.67,61.1779 512.5,62.5C 545.984,82.1663 579.151,102.5 612,123.5C 614.133,122.745 615.8,121.412 617,119.5C 617.059,114.652 617.726,109.985 619,105.5C 620.118,108.139 620.618,110.973 620.5,114C 619.644,119.767 618.311,125.101 616.5,130C 552.833,130.333 489.167,130.667 425.5,131C 429.248,130.78 432.248,132.113 434.5,135C 436.833,135.333 439.167,135.667 441.5,136C 441.957,136.414 442.291,136.914 442.5,137.5C 437.823,139.266 433.823,138.433 430.5,135C 426.752,135.22 423.752,133.887 421.5,131C 415.263,129.609 414.93,127.276 420.5,124C 451.668,104.917 482.668,85.5837 513.5,66C 511.356,64.8539 509.523,63.3539 508,61.5C 504.633,60.867 501.467,59.7003 498.5,58C 497.272,56.5098 497.272,55.0098 498.5,53.5 Z"/></g>
<g><path style="opacity:1" fill="#000000" d="M 268.5,106.5 C 267.365,108.213 265.698,108.88 263.5,108.5C 250.869,99.839 238.536,90.6723 226.5,81C 224.783,79.4412 222.783,78.6079 220.5,78.5C 220.824,82.5546 220.491,86.5546 219.5,90.5C 218.914,90.2907 218.414,89.9574 218,89.5C 217.667,85.1667 217.333,80.8333 217,76.5C 199.496,89.1561 182.329,102.156 165.5,115.5C 163.833,114.5 162.5,113.167 161.5,111.5C 177.956,99.5504 194.289,87.3837 210.5,75C 205.833,74.6667 201.167,74.3333 196.5,74C 195.167,73.3333 195.167,72.6667 196.5,72C 202.833,71.6667 209.167,71.3333 215.5,71C 216.5,70.5 217.5,70 218.5,69.5C 235.196,81.8425 251.863,94.1758 268.5,106.5 Z"/></g>
<g><path style="opacity:1" fill="#fefefe" d="M 513.5,71.5 C 514.239,71.369 514.906,71.5357 515.5,72C 514.087,77.4161 511.087,81.7494 506.5,85C 507.93,86.4404 509.597,86.7737 511.5,86C 514.679,81.4655 517.346,76.6321 519.5,71.5C 548.299,89.1353 576.966,106.969 605.5,125C 596.521,123.714 587.688,121.547 579,118.5C 577.833,118.667 576.667,118.833 575.5,119C 574.167,119.667 574.167,120.333 575.5,121C 580.552,121.13 585.219,122.463 589.5,125C 538.833,125.667 488.167,125.667 437.5,125C 441.999,123 446.666,121.5 451.5,120.5C 451.5,119.5 451.5,118.5 451.5,117.5C 455.541,117.426 456.208,116.093 453.5,113.5C 450.196,113.678 448.529,115.344 448.5,118.5C 443.525,120.016 438.525,121.183 433.5,122C 460.4,105.392 487.066,88.5586 513.5,71.5 Z"/></g>
<g><path style="opacity:1" fill="#fefefe" d="M 263.5,108.5 C 261.118,109.531 258.784,110.864 256.5,112.5C 257.648,114.149 258.981,115.649 260.5,117C 264.071,116.323 267.738,115.49 271.5,114.5C 282.314,123.136 293.314,131.636 304.5,140C 269.847,141.182 269.847,142.682 304.5,144.5C 306.678,145.979 309.012,147.312 311.5,148.5C 300.901,182.464 290.401,216.464 280,250.5C 278.26,249.284 277.26,247.618 277,245.5C 276.333,244.167 275.667,244.167 275,245.5C 274.262,248.212 274.929,250.545 277,252.5C 277.667,255.167 277.667,257.833 277,260.5C 238.238,261.663 199.405,261.83 160.5,261C 164.998,257.956 169.998,256.289 175.5,256C 177.036,254.401 177.536,252.567 177,250.5C 174.342,249.306 173.176,250.306 173.5,253.5C 168.81,253.619 164.476,254.952 160.5,257.5C 159.914,257.291 159.414,256.957 159,256.5C 147.692,219.578 136.192,182.745 124.5,146C 126.387,145.837 127.887,146.671 129,148.5C 131.348,152.261 133.848,155.928 136.5,159.5C 138.115,160.154 139.782,160.654 141.5,161C 145.763,167.294 146.93,166.794 145,159.5C 142.929,158.475 140.762,157.642 138.5,157C 135.079,152.7 131.746,148.2 128.5,143.5C 139.863,134.824 151.197,126.158 162.5,117.5C 162.785,121.484 164.785,124.484 168.5,126.5C 169.631,124.926 169.798,123.259 169,121.5C 167.18,119.868 166.014,117.868 165.5,115.5C 182.329,102.156 199.496,89.1561 217,76.5C 217.333,80.8333 217.667,85.1667 218,89.5C 218.414,89.9574 218.914,90.2907 219.5,90.5C 220.491,86.5546 220.824,82.5546 220.5,78.5C 222.783,78.6079 224.783,79.4412 226.5,81C 238.536,90.6723 250.869,99.839 263.5,108.5 Z"/></g>
<g><path style="opacity:1" fill="#020202" d="M 870.5,106.5 C 870.047,108.565 869.047,110.232 867.5,111.5C 857.522,103.031 847.356,94.6975 837,86.5C 830.2,107.69 823.7,129.023 817.5,150.5C 825.138,151.497 832.804,151.831 840.5,151.5C 840.5,153.167 840.5,154.833 840.5,156.5C 832.167,156.5 823.833,156.5 815.5,156.5C 812.2,168.551 809.033,180.551 806,192.5C 832.167,214.667 858.333,236.833 884.5,259C 886.134,259.494 887.801,259.66 889.5,259.5C 889.025,255.857 888.692,252.19 888.5,248.5C 888.386,245.636 888.886,242.97 890,240.5C 891.516,247.66 892.349,254.993 892.5,262.5C 889.724,262.089 889.057,262.922 890.5,265C 890.333,266.5 889.5,267.333 888,267.5C 854.198,266.51 820.364,266.177 786.5,266.5C 786.351,267.552 786.517,268.552 787,269.5C 793.168,274.558 800.335,277.058 808.5,277C 808.957,277.414 809.291,277.914 809.5,278.5C 807.667,278.833 805.833,279.167 804,279.5C 799.523,278.679 795.023,278.012 790.5,277.5C 790.719,276.325 790.386,275.325 789.5,274.5C 786.752,273.187 783.919,272.187 781,271.5C 780.333,270.5 780.333,269.5 781,268.5C 782.236,267.601 783.07,266.434 783.5,265C 782.217,263.864 781.217,262.531 780.5,261C 786.678,238.955 793.011,216.955 799.5,195C 787.191,183.698 774.524,172.698 761.5,162C 755.007,161.036 748.674,159.702 742.5,158C 746.845,153.11 752.178,149.943 758.5,148.5C 761.947,146.095 765.447,143.762 769,141.5C 770.632,143.027 770.799,144.693 769.5,146.5C 767.5,147.167 765.5,147.833 763.5,148.5C 762.614,149.325 762.281,150.325 762.5,151.5C 779.167,151.5 795.833,151.5 812.5,151.5C 818.011,131.122 823.678,110.789 829.5,90.5C 827.167,90.5 824.833,90.5 822.5,90.5C 822.5,92.1667 822.5,93.8333 822.5,95.5C 819.404,94.9066 817.071,95.9066 815.5,98.5C 813.657,99.9387 811.99,99.772 810.5,98C 813.167,95.4742 816.167,93.6409 819.5,92.5C 819.286,90.8561 819.62,89.3561 820.5,88C 823.76,87.2165 826.927,87.3832 830,88.5C 830.837,86.6494 831.671,84.8161 832.5,83C 834.355,82.5779 836.189,82.0779 838,81.5C 848.984,89.6518 859.817,97.9852 870.5,106.5 Z"/></g>
<g><path style="opacity:1" fill="#fefdfd" d="M 867.5,111.5 C 866.633,115.965 865.3,120.299 863.5,124.5C 864.889,131.143 867.389,131.81 871,126.5C 871.738,122.89 872.905,119.557 874.5,116.5C 888.311,128.136 902.311,139.636 916.5,151C 912.5,151.667 908.5,151.667 904.5,151C 898.934,148.472 893.267,146.806 887.5,146C 886.167,146.667 886.167,147.333 887.5,148C 890.5,149 893.5,150 896.5,151C 880.17,151.5 863.837,151.667 847.5,151.5C 845.264,150.611 843.264,149.278 841.5,147.5C 840.571,148.689 840.238,150.022 840.5,151.5C 832.804,151.831 825.138,151.497 817.5,150.5C 823.7,129.023 830.2,107.69 837,86.5C 847.356,94.6975 857.522,103.031 867.5,111.5 Z"/></g>
<g><path style="opacity:1" fill="#070707" d="M 837.5,95.5 C 838.117,95.6107 838.617,95.944 839,96.5C 839.279,100.459 840.113,104.292 841.5,108C 841.167,108.5 840.833,109 840.5,109.5C 838.364,108.528 837.197,106.861 837,104.5C 836.264,101.408 836.431,98.408 837.5,95.5 Z"/></g>
<g><path style="opacity:1" fill="#f5888b" d="M 873.5,99.5 C 871.917,101.508 870.917,103.841 870.5,106.5C 870.5,103.833 870.5,101.167 870.5,98.5C 871.791,98.2627 872.791,98.596 873.5,99.5 Z"/></g>
<g><path style="opacity:1" fill="#ec3130" d="M 873.5,99.5 C 877.37,103.078 878.37,107.411 876.5,112.5C 876.267,114.062 875.6,115.395 874.5,116.5C 872.905,119.557 871.738,122.89 871,126.5C 867.389,131.81 864.889,131.143 863.5,124.5C 865.3,120.299 866.633,115.965 867.5,111.5C 869.047,110.232 870.047,108.565 870.5,106.5C 870.917,103.841 871.917,101.508 873.5,99.5 Z"/></g>
<g><path style="opacity:1" fill="#39b359" d="M 275.5,111.5 C 274.474,112.853 273.141,113.853 271.5,114.5C 267.738,115.49 264.071,116.323 260.5,117C 258.981,115.649 257.648,114.149 256.5,112.5C 258.784,110.864 261.118,109.531 263.5,108.5C 265.698,108.88 267.365,108.213 268.5,106.5C 268.712,104.616 269.712,103.283 271.5,102.5C 277.033,100.177 281.033,101.677 283.5,107C 283.167,107.5 282.833,108 282.5,108.5C 278.857,106.653 276.524,107.653 275.5,111.5 Z"/></g>
<g><path style="opacity:1" fill="#ec3937" d="M 161.5,111.5 C 162.5,113.167 163.833,114.5 165.5,115.5C 166.014,117.868 167.18,119.868 169,121.5C 169.798,123.259 169.631,124.926 168.5,126.5C 164.785,124.484 162.785,121.484 162.5,117.5C 161.488,116.128 160.488,114.795 159.5,113.5C 157.008,110.531 154.508,107.531 152,104.5C 150.872,102.655 150.372,100.655 150.5,98.5C 153.967,98.4457 156.634,99.9457 158.5,103C 157.643,103.689 156.977,104.522 156.5,105.5C 158.219,107.544 159.886,109.544 161.5,111.5 Z"/></g>
<g><path style="opacity:1" fill="#030303" d="M 275.5,111.5 C 288.022,121.026 300.522,130.692 313,140.5C 313.333,135.167 313.667,129.833 314,124.5C 315.586,123.624 317.086,122.624 318.5,121.5C 320.111,122.32 320.778,123.654 320.5,125.5C 319.167,125.5 317.833,125.5 316.5,125.5C 316.485,132.879 316.652,140.212 317,147.5C 304.492,186.349 292.825,225.349 282,264.5C 282.415,260.982 284.248,258.649 287.5,257.5C 289.581,253.75 292.581,251.084 296.5,249.5C 297.5,249.833 298.167,250.5 298.5,251.5C 296.464,253.356 294.131,254.856 291.5,256C 290.9,259.436 288.9,261.269 285.5,261.5C 285.5,263.833 285.5,266.167 285.5,268.5C 283.5,268.833 281.5,269.167 279.5,269.5C 279.5,268.5 279.5,267.5 279.5,266.5C 242.498,266.333 205.498,266.5 168.5,267C 171.291,268.386 173.791,270.22 176,272.5C 176.49,273.793 176.657,275.127 176.5,276.5C 179.77,276.679 181.437,278.512 181.5,282C 181.15,283.257 180.483,283.591 179.5,283C 175.486,278.919 171.819,274.586 168.5,270C 166.695,269.028 165.028,267.861 163.5,266.5C 161.807,268.279 159.807,268.779 157.5,268C 145.063,228.3 132.563,187.8 120,146.5C 117.512,150.325 114.012,152.492 109.5,153C 106.976,154.883 105.642,157.383 105.5,160.5C 103.571,160.769 101.905,160.269 100.5,159C 103.77,153.379 108.437,149.713 114.5,148C 129.229,136.474 144.229,124.974 159.5,113.5C 160.488,114.795 161.488,116.128 162.5,117.5C 151.197,126.158 139.863,134.824 128.5,143.5C 131.746,148.2 135.079,152.7 138.5,157C 140.762,157.642 142.929,158.475 145,159.5C 146.93,166.794 145.763,167.294 141.5,161C 139.782,160.654 138.115,160.154 136.5,159.5C 133.848,155.928 131.348,152.261 129,148.5C 127.887,146.671 126.387,145.837 124.5,146C 136.192,182.745 147.692,219.578 159,256.5C 159.414,256.957 159.914,257.291 160.5,257.5C 164.476,254.952 168.81,253.619 173.5,253.5C 173.176,250.306 174.342,249.306 177,250.5C 177.536,252.567 177.036,254.401 175.5,256C 169.998,256.289 164.998,257.956 160.5,261C 199.405,261.83 238.238,261.663 277,260.5C 277.667,257.833 277.667,255.167 277,252.5C 274.929,250.545 274.262,248.212 275,245.5C 275.667,244.167 276.333,244.167 277,245.5C 277.26,247.618 278.26,249.284 280,250.5C 290.401,216.464 300.901,182.464 311.5,148.5C 309.012,147.312 306.678,145.979 304.5,144.5C 269.847,142.682 269.847,141.182 304.5,140C 293.314,131.636 282.314,123.136 271.5,114.5C 273.141,113.853 274.474,112.853 275.5,111.5 Z"/></g>
<g><path style="opacity:1" fill="#020202" d="M 876.5,112.5 C 890.792,123.62 904.959,134.953 919,146.5C 919.333,143.5 919.667,140.5 920,137.5C 920.718,136.549 921.551,136.383 922.5,137C 922.664,139.699 922.83,142.532 923,145.5C 925.231,148.281 927.231,151.281 929,154.5C 929.595,155.899 929.428,157.232 928.5,158.5C 924.184,160.077 920.184,159.577 916.5,157C 893.502,156.5 870.502,156.333 847.5,156.5C 847.5,154.833 847.5,153.167 847.5,151.5C 863.837,151.667 880.17,151.5 896.5,151C 893.5,150 890.5,149 887.5,148C 886.167,147.333 886.167,146.667 887.5,146C 893.267,146.806 898.934,148.472 904.5,151C 908.5,151.667 912.5,151.667 916.5,151C 902.311,139.636 888.311,128.136 874.5,116.5C 875.6,115.395 876.267,114.062 876.5,112.5 Z"/></g>
<g><path style="opacity:1" fill="#3db25a" d="M 847.5,151.5 C 847.5,153.167 847.5,154.833 847.5,156.5C 846.339,161.587 844.005,166.254 840.5,170.5C 838.077,169.082 836.411,167.082 835.5,164.5C 836.467,162.238 837.134,159.905 837.5,157.5C 838.791,157.737 839.791,157.404 840.5,156.5C 840.5,154.833 840.5,153.167 840.5,151.5C 840.238,150.022 840.571,148.689 841.5,147.5C 843.264,149.278 845.264,150.611 847.5,151.5 Z"/></g>
<g><path style="opacity:1" fill="#ebebeb" d="M 751.5,153.5 C 752.5,153.5 753.5,153.5 754.5,153.5C 754.33,154.822 754.663,155.989 755.5,157C 754.207,157.49 752.873,157.657 751.5,157.5C 751.5,156.167 751.5,154.833 751.5,153.5 Z"/></g>
<g><path style="opacity:1" fill="#fefefe" d="M 763.5,157.5 C 779.005,156.173 794.672,156.173 810.5,157.5C 807.487,167.885 804.321,178.219 801,188.5C 791.074,180.453 781.241,172.286 771.5,164C 776.554,163.219 781.554,163.386 786.5,164.5C 787.731,163.349 787.731,162.183 786.5,161C 779.833,160.667 773.167,160.333 766.5,160C 765.627,158.955 764.627,158.122 763.5,157.5 Z"/></g>
<g><path style="opacity:1" fill="#000000" d="M 513.5,164.5 C 544.872,168.338 576.205,172.505 607.5,177C 608.833,178.333 608.833,179.667 607.5,181C 576.011,185.977 544.511,189.811 513,192.5C 512.506,190.866 512.34,189.199 512.5,187.5C 482.498,187.667 452.498,187.5 422.5,187C 421.167,181.667 421.167,176.333 422.5,171C 452.498,170.5 482.498,170.333 512.5,170.5C 512.325,168.379 512.659,166.379 513.5,164.5 Z"/></g>
<g><path style="opacity:1" fill="#fefffe" d="M 517.5,169.5 C 540.417,172.907 563.417,176.074 586.5,179C 563.593,181.987 540.76,185.154 518,188.5C 517.749,186.567 517.249,184.734 516.5,183C 486.502,182.5 456.502,182.333 426.5,182.5C 426.5,180.167 426.5,177.833 426.5,175.5C 456.502,175.667 486.502,175.5 516.5,175C 517.406,173.301 517.739,171.467 517.5,169.5 Z"/></g>
<g><path style="opacity:1" fill="#fdfdfd" d="M 803.5,197.5 C 828.173,217.517 852.506,238.017 876.5,259C 874.177,258.694 871.844,258.028 869.5,257C 865.021,254.812 860.688,252.479 856.5,250C 854.597,249.226 852.93,249.56 851.5,251C 853.569,252.523 855.903,253.357 858.5,253.5C 858.5,254.5 858.5,255.5 858.5,256.5C 860.199,256.34 861.866,256.506 863.5,257C 866.311,258.825 869.311,260.158 872.5,261C 845.827,261.833 819.16,261.667 792.5,260.5C 793.325,259.614 794.325,259.281 795.5,259.5C 796.362,256.115 798.028,253.115 800.5,250.5C 802.5,249.5 804.5,248.5 806.5,247.5C 804.472,245.059 802.138,244.892 799.5,247C 796.405,249.426 794.072,252.426 792.5,256C 790.667,257.167 788.833,258.333 787,259.5C 786.833,259 786.667,258.5 786.5,258C 792.48,237.896 798.147,217.729 803.5,197.5 Z"/></g>
</svg>
