<?xml version="1.0" encoding="UTF-8"?>
<!DOCTYPE svg PUBLIC "-//W3C//DTD SVG 1.1//EN" "http://www.w3.org/Graphics/SVG/1.1/DTD/svg11.dtd">
<svg xmlns="http://www.w3.org/2000/svg" version="1.1" width="985px" height="362px" style="shape-rendering:geometricPrecision; text-rendering:geometricPrecision; image-rendering:optimizeQuality; fill-rule:evenodd; clip-rule:evenodd" xmlns:xlink="http://www.w3.org/1999/xlink">
<g><path style="opacity:1" fill="#fefefe" d="M -0.5,-0.5 C 327.833,-0.5 656.167,-0.5 984.5,-0.5C 984.5,120.167 984.5,240.833 984.5,361.5C 656.167,361.5 327.833,361.5 -0.5,361.5C -0.5,245.5 -0.5,129.5 -0.5,13.5C 2.16667,12.5 2.16667,11.5 -0.5,10.5C -0.5,6.83333 -0.5,3.16667 -0.5,-0.5 Z"/></g>
<g><path style="opacity:1" fill="#000000" d="M -0.5,10.5 C 2.16667,11.5 2.16667,12.5 -0.5,13.5C -0.5,12.5 -0.5,11.5 -0.5,10.5 Z"/></g>
<g><path style="opacity:1" fill="#020202" d="M 485.5,53.5 C 489.179,56.6815 493.512,58.5149 498.5,59C 499.337,60.0113 499.67,61.1779 499.5,62.5C 532.984,82.1663 566.151,102.5 599,123.5C 601.133,122.745 602.8,121.412 604,119.5C 604.059,114.652 604.726,109.985 606,105.5C 607.118,108.139 607.618,110.973 607.5,114C 606.644,119.767 605.311,125.101 603.5,130C 539.833,130.333 476.167,130.667 412.5,131C 416.248,130.78 419.248,132.113 421.5,135C 423.833,135.333 426.167,135.667 428.5,136C 428.957,136.414 429.291,136.914 429.5,137.5C 424.823,139.266 420.823,138.433 417.5,135C 413.752,135.22 410.752,133.887 408.5,131C 402.263,129.609 401.93,127.276 407.5,124C 438.668,104.917 469.668,85.5837 500.5,66C 498.356,64.8539 496.523,63.3539 495,61.5C 491.633,60.867 488.467,59.7003 485.5,58C 484.272,56.5098 484.272,55.0098 485.5,53.5 Z"/></g>
<g><path style="opacity:1" fill="#020202" d="M 204.5,69.5 C 236.72,92.5392 268.553,116.206 300,140.5C 300.333,135.167 300.667,129.833 301,124.5C 302.586,123.624 304.086,122.624 305.5,121.5C 307.111,122.32 307.778,123.654 307.5,125.5C 306.167,125.5 304.833,125.5 303.5,125.5C 303.485,132.879 303.652,140.212 304,147.5C 291.492,186.349 279.825,225.349 269,264.5C 269.415,260.982 271.248,258.649 274.5,257.5C 276.581,253.75 279.581,251.084 283.5,249.5C 284.5,249.833 285.167,250.5 285.5,251.5C 283.464,253.356 281.131,254.856 278.5,256C 277.9,259.436 275.9,261.269 272.5,261.5C 272.5,263.833 272.5,266.167 272.5,268.5C 270.5,268.833 268.5,269.167 266.5,269.5C 266.5,268.5 266.5,267.5 266.5,266.5C 229.498,266.333 192.498,266.5 155.5,267C 158.291,268.386 160.791,270.22 163,272.5C 163.49,273.793 163.657,275.127 163.5,276.5C 166.77,276.679 168.437,278.512 168.5,282C 168.15,283.257 167.483,283.591 166.5,283C 162.486,278.919 158.819,274.586 155.5,270C 153.695,269.028 152.028,267.861 150.5,266.5C 148.807,268.279 146.807,268.779 144.5,268C 132.063,228.3 119.563,187.8 107,146.5C 104.512,150.325 101.012,152.492 96.5,153C 93.9756,154.883 92.6423,157.383 92.5,160.5C 90.5714,160.769 88.9047,160.269 87.5,159C 90.7702,153.379 95.4368,149.713 101.5,148C 133.069,123.474 165.069,99.1403 197.5,75C 192.833,74.6667 188.167,74.3333 183.5,74C 182.167,73.3333 182.167,72.6667 183.5,72C 189.833,71.6667 196.167,71.3333 202.5,71C 203.416,70.7216 204.082,70.2216 204.5,69.5 Z"/></g>
<g><path style="opacity:1" fill="#fefefe" d="M 500.5,71.5 C 501.239,71.369 501.906,71.5357 502.5,72C 501.087,77.4161 498.087,81.7494 493.5,85C 494.93,86.4404 496.597,86.7737 498.5,86C 501.679,81.4655 504.346,76.6321 506.5,71.5C 535.299,89.1353 563.966,106.969 592.5,125C 583.521,123.714 574.688,121.547 566,118.5C 564.833,118.667 563.667,118.833 562.5,119C 561.167,119.667 561.167,120.333 562.5,121C 567.552,121.13 572.219,122.463 576.5,125C 525.833,125.667 475.167,125.667 424.5,125C 428.999,123 433.666,121.5 438.5,120.5C 438.5,119.5 438.5,118.5 438.5,117.5C 442.541,117.426 443.208,116.093 440.5,113.5C 437.196,113.678 435.529,115.344 435.5,118.5C 430.525,120.016 425.525,121.183 420.5,122C 447.4,105.392 474.066,88.5586 500.5,71.5 Z"/></g>
<g><path style="opacity:1" fill="#fefefe" d="M 203.5,76.5 C 204.191,80.8993 204.858,85.3993 205.5,90C 205.833,90.1667 206.167,90.3333 206.5,90.5C 207.491,86.5546 207.824,82.5546 207.5,78.5C 209.783,78.6079 211.783,79.4412 213.5,81C 239.216,101.051 265.216,120.717 291.5,140C 256.847,141.182 256.847,142.682 291.5,144.5C 293.678,145.979 296.012,147.312 298.5,148.5C 287.901,182.464 277.401,216.464 267,250.5C 265.26,249.284 264.26,247.618 264,245.5C 263.333,244.167 262.667,244.167 262,245.5C 262.229,249.296 263.063,252.963 264.5,256.5C 264.449,258.1 264.116,259.6 263.5,261C 224.833,261.667 186.167,261.667 147.5,261C 151.998,257.956 156.998,256.289 162.5,256C 164.036,254.401 164.536,252.567 164,250.5C 161.342,249.306 160.176,250.306 160.5,253.5C 155.81,253.619 151.476,254.952 147.5,257.5C 146.914,257.291 146.414,256.957 146,256.5C 134.692,219.578 123.192,182.745 111.5,146C 113.387,145.837 114.887,146.671 116,148.5C 118.348,152.261 120.848,155.928 123.5,159.5C 125.115,160.154 126.782,160.654 128.5,161C 132.763,167.294 133.93,166.794 132,159.5C 129.929,158.475 127.762,157.642 125.5,157C 122.079,152.7 118.746,148.2 115.5,143.5C 144.876,121.111 174.209,98.778 203.5,76.5 Z"/></g>
<g><path style="opacity:1" fill="#020202" d="M 823.5,81.5 C 825.783,81.6079 827.783,82.4412 829.5,84C 855,104.833 880.5,125.667 906,146.5C 906.333,143.5 906.667,140.5 907,137.5C 907.718,136.549 908.551,136.383 909.5,137C 909.33,140.243 909.663,143.576 910.5,147C 912.991,149.643 914.991,152.643 916.5,156C 916.265,156.873 915.931,157.707 915.5,158.5C 911.184,160.077 907.184,159.577 903.5,157C 869.835,156.5 836.168,156.333 802.5,156.5C 799.2,168.551 796.033,180.551 793,192.5C 819.167,214.667 845.333,236.833 871.5,259C 873.134,259.494 874.801,259.66 876.5,259.5C 876.025,255.857 875.692,252.19 875.5,248.5C 875.386,245.636 875.886,242.97 877,240.5C 878.516,247.66 879.349,254.993 879.5,262.5C 876.724,262.089 876.057,262.922 877.5,265C 877.333,266.5 876.5,267.333 875,267.5C 841.198,266.51 807.364,266.177 773.5,266.5C 773.351,267.552 773.517,268.552 774,269.5C 780.168,274.558 787.335,277.058 795.5,277C 795.957,277.414 796.291,277.914 796.5,278.5C 794.667,278.833 792.833,279.167 791,279.5C 786.523,278.679 782.023,278.012 777.5,277.5C 777.719,276.325 777.386,275.325 776.5,274.5C 773.752,273.187 770.919,272.187 768,271.5C 767.333,270.5 767.333,269.5 768,268.5C 769.236,267.601 770.07,266.434 770.5,265C 769.217,263.864 768.217,262.531 767.5,261C 773.678,238.955 780.011,216.955 786.5,195C 774.191,183.698 761.524,172.698 748.5,162C 742.007,161.036 735.674,159.702 729.5,158C 733.845,153.11 739.178,149.943 745.5,148.5C 748.947,146.095 752.447,143.762 756,141.5C 757.632,143.027 757.799,144.693 756.5,146.5C 754.5,147.167 752.5,147.833 750.5,148.5C 749.614,149.325 749.281,150.325 749.5,151.5C 766.167,151.5 782.833,151.5 799.5,151.5C 805.011,131.122 810.678,110.789 816.5,90.5C 814.167,90.5 811.833,90.5 809.5,90.5C 809.5,92.1667 809.5,93.8333 809.5,95.5C 806.404,94.9066 804.071,95.9066 802.5,98.5C 800.657,99.9387 798.99,99.772 797.5,98C 800.167,95.4742 803.167,93.6409 806.5,92.5C 806.286,90.8561 806.62,89.3561 807.5,88C 810.76,87.2165 813.927,87.3832 817,88.5C 817.862,86.913 818.529,85.2464 819,83.5C 820.622,82.9011 822.122,82.2344 823.5,81.5 Z"/></g>
<g><path style="opacity:1" fill="#fefefe" d="M 823.5,86.5 C 850.319,107.752 876.986,129.252 903.5,151C 899.5,151.667 895.5,151.667 891.5,151C 885.934,148.472 880.267,146.806 874.5,146C 873.167,146.667 873.167,147.333 874.5,148C 877.5,149 880.5,150 883.5,151C 857.16,151.833 830.827,151.667 804.5,150.5C 810.839,129.137 817.173,107.804 823.5,86.5 Z"/></g>
<g><path style="opacity:1" fill="#070707" d="M 824.5,95.5 C 825.117,95.6107 825.617,95.944 826,96.5C 826.279,100.459 827.113,104.292 828.5,108C 828.167,108.5 827.833,109 827.5,109.5C 825.364,108.528 824.197,106.861 824,104.5C 823.264,101.408 823.431,98.408 824.5,95.5 Z"/></g>
<g><path style="opacity:1" fill="#ebebeb" d="M 738.5,153.5 C 739.5,153.5 740.5,153.5 741.5,153.5C 741.33,154.822 741.663,155.989 742.5,157C 741.207,157.49 739.873,157.657 738.5,157.5C 738.5,156.167 738.5,154.833 738.5,153.5 Z"/></g>
<g><path style="opacity:1" fill="#fefefe" d="M 750.5,157.5 C 766.005,156.173 781.672,156.173 797.5,157.5C 794.487,167.885 791.321,178.219 788,188.5C 778.074,180.453 768.241,172.286 758.5,164C 763.554,163.219 768.554,163.386 773.5,164.5C 774.731,163.349 774.731,162.183 773.5,161C 766.833,160.667 760.167,160.333 753.5,160C 752.627,158.955 751.627,158.122 750.5,157.5 Z"/></g>
<g><path style="opacity:1" fill="#000000" d="M 500.5,164.5 C 531.872,168.338 563.205,172.505 594.5,177C 595.833,178.333 595.833,179.667 594.5,181C 563.011,185.977 531.511,189.811 500,192.5C 499.506,190.866 499.34,189.199 499.5,187.5C 469.498,187.667 439.498,187.5 409.5,187C 408.167,181.667 408.167,176.333 409.5,171C 439.498,170.5 469.498,170.333 499.5,170.5C 499.325,168.379 499.659,166.379 500.5,164.5 Z"/></g>
<g><path style="opacity:1" fill="#fefffe" d="M 504.5,169.5 C 527.417,172.907 550.417,176.074 573.5,179C 550.593,181.987 527.76,185.154 505,188.5C 504.749,186.567 504.249,184.734 503.5,183C 473.502,182.5 443.502,182.333 413.5,182.5C 413.5,180.167 413.5,177.833 413.5,175.5C 443.502,175.667 473.502,175.5 503.5,175C 504.406,173.301 504.739,171.467 504.5,169.5 Z"/></g>
<g><path style="opacity:1" fill="#fdfdfd" d="M 790.5,197.5 C 815.173,217.517 839.506,238.017 863.5,259C 861.177,258.694 858.844,258.028 856.5,257C 852.021,254.812 847.688,252.479 843.5,250C 841.597,249.226 839.93,249.56 838.5,251C 840.569,252.523 842.903,253.357 845.5,253.5C 845.5,254.5 845.5,255.5 845.5,256.5C 847.199,256.34 848.866,256.506 850.5,257C 853.311,258.825 856.311,260.158 859.5,261C 832.827,261.833 806.16,261.667 779.5,260.5C 780.325,259.614 781.325,259.281 782.5,259.5C 783.362,256.115 785.028,253.115 787.5,250.5C 789.5,249.5 791.5,248.5 793.5,247.5C 791.472,245.059 789.138,244.892 786.5,247C 783.405,249.426 781.072,252.426 779.5,256C 777.667,257.167 775.833,258.333 774,259.5C 773.833,259 773.667,258.5 773.5,258C 779.48,237.896 785.147,217.729 790.5,197.5 Z"/></g>
</svg>
